<?xml version="1.0" encoding="utf-8"?>
<!-- Generator: Adobe Illustrator 16.0.4, SVG Export Plug-In . SVG Version: 6.00 Build 0)  -->
<!DOCTYPE svg PUBLIC "-//W3C//DTD SVG 1.1//EN" "http://www.w3.org/Graphics/SVG/1.1/DTD/svg11.dtd">
<svg version="1.1" id="Layer_1" xmlns="http://www.w3.org/2000/svg" xmlns:xlink="http://www.w3.org/1999/xlink" x="0px" y="0px"
	 width="296.959px" height="360.329px" viewBox="0 0 296.959 360.329" enable-background="new 0 0 296.959 360.329"
	 xml:space="preserve">
<g>
	<g>
		<path fill="#FFFFFF" d="M46.564,337.827c0,7.391-2.053,12.988-6.16,16.795c-4.104,3.805-9.963,5.707-17.572,5.707
			c-3.067,0-5.981-0.328-8.748-0.986c-2.766-0.656-5.188-1.795-7.266-3.41c-2.084-1.611-3.738-3.803-4.969-6.568
			C0.617,346.598,0,343.081,0,338.811c0-15.549,7.885-23.324,23.651-23.324c3.119,0,6.078,0.344,8.867,1.025
			c2.793,0.689,5.229,1.877,7.311,3.572c2.08,1.701,3.726,3.986,4.929,6.859C45.963,329.817,46.564,333.446,46.564,337.827z
			 M23.488,322.799c-2.957,0-5.131,1.051-6.529,3.16c-1.395,2.105-2.094,5.625-2.094,10.553c0,3.396,0.166,6.172,0.492,8.338
			c0.33,2.158,0.822,3.855,1.48,5.09c0.655,1.23,1.487,2.064,2.502,2.504c1.014,0.439,2.229,0.658,3.653,0.658
			c3.179,0,5.394-1.15,6.654-3.449c1.258-2.301,1.889-6.105,1.889-11.416c0-3.123-0.18-5.682-0.532-7.678
			c-0.357-1.998-0.877-3.574-1.562-4.725c-0.684-1.148-1.516-1.943-2.506-2.381C25.953,323.016,24.803,322.799,23.488,322.799z"/>
		<path fill="#FFFFFF" d="M84.26,331.502l-6.652,0.574c-0.715-3.285-2.289-5.627-4.725-7.021c-2.437-1.398-5.324-2.096-8.662-2.096
			c-2.027,0-3.6,0.344-4.723,1.025c-1.119,0.688-1.683,1.602-1.683,2.752c0,1.422,0.711,2.492,2.133,3.205
			c1.427,0.711,3.203,1.312,5.341,1.805c2.137,0.494,4.461,0.986,6.979,1.477c2.518,0.494,4.846,1.236,6.982,2.223
			c2.137,0.982,3.912,2.326,5.336,4.02c1.422,1.697,2.137,3.973,2.137,6.818c0,2.244-0.438,4.186-1.312,5.83
			c-0.877,1.643-2.043,3.014-3.491,4.105c-1.449,1.096-3.136,1.906-5.052,2.424c-1.916,0.521-3.889,0.781-5.913,0.781
			c-3.832,0-6.789-0.262-8.867-0.781c-2.08-0.518-3.777-1.139-5.092-1.85c-0.384-0.166-0.771-0.326-1.148-0.492
			c-0.387-0.166-0.771-0.248-1.149-0.248c-1.043,0-1.699,0.959-1.974,2.873h-6.649v-14.861c1.094-0.109,2.188-0.189,3.284-0.246
			c1.095-0.055,2.188-0.109,3.283-0.166c0.33,1.48,1,2.795,2.015,3.943c1.012,1.15,2.258,2.125,3.735,2.914
			c1.479,0.797,3.107,1.398,4.885,1.807c1.779,0.408,3.572,0.615,5.38,0.615c1.973,0,3.504-0.41,4.602-1.23
			c1.092-0.822,1.641-1.867,1.641-3.129c0-1.318-0.491-2.309-1.479-2.963c-0.984-0.656-2.299-1.18-3.939-1.564
			c-1.64-0.383-3.52-0.742-5.627-1.064c-2.106-0.334-4.258-0.803-6.444-1.4c-4.109-1.102-7.023-2.676-8.746-4.736
			c-1.728-2.057-2.588-4.73-2.588-8.025c0-3.787,1.312-6.832,3.942-9.135c2.625-2.303,6.351-3.459,11.166-3.459
			c1.972,0,3.748,0.186,5.34,0.549c1.587,0.365,2.97,0.781,4.146,1.26c1.176,0.479,2.188,0.896,3.039,1.262
			c0.846,0.365,1.518,0.545,2.014,0.545c0.654,0,1.16-0.207,1.517-0.617s0.645-1.105,0.862-2.094h6.16v14.373H84.26z"/>
		<path fill="#FFFFFF" d="M125.172,331.502l-6.652,0.574c-0.715-3.285-2.289-5.627-4.723-7.021
			c-2.437-1.398-5.324-2.096-8.666-2.096c-2.025,0-3.601,0.344-4.719,1.025c-1.125,0.688-1.685,1.602-1.685,2.752
			c0,1.422,0.711,2.492,2.133,3.205c1.425,0.711,3.203,1.312,5.341,1.805c2.135,0.494,4.461,0.986,6.979,1.477
			c2.518,0.494,4.844,1.236,6.982,2.223c2.133,0.982,3.912,2.326,5.336,4.02c1.424,1.697,2.139,3.973,2.139,6.818
			c0,2.244-0.441,4.186-1.313,5.83c-0.877,1.643-2.043,3.014-3.492,4.105c-1.451,1.096-3.135,1.906-5.049,2.424
			c-1.918,0.521-3.892,0.781-5.916,0.781c-3.832,0-6.787-0.262-8.867-0.781c-2.082-0.518-3.777-1.139-5.092-1.85
			c-0.386-0.166-0.771-0.326-1.15-0.492c-0.385-0.166-0.768-0.248-1.147-0.248c-1.043,0-1.699,0.959-1.974,2.873h-6.649v-14.861
			c1.096-0.109,2.186-0.189,3.28-0.246c1.097-0.055,2.191-0.109,3.287-0.166c0.33,1.48,1,2.795,2.015,3.943
			c1.012,1.15,2.256,2.125,3.735,2.914c1.478,0.797,3.107,1.398,4.888,1.807c1.776,0.408,3.571,0.615,5.377,0.615
			c1.973,0,3.502-0.41,4.602-1.23c1.092-0.822,1.641-1.867,1.641-3.129c0-1.318-0.491-2.309-1.479-2.963
			c-0.984-0.656-2.299-1.18-3.939-1.564c-1.645-0.385-3.52-0.742-5.627-1.064c-2.108-0.334-4.258-0.803-6.448-1.4
			c-4.105-1.102-7.021-2.676-8.746-4.736c-1.726-2.057-2.584-4.73-2.584-8.025c0-3.787,1.311-6.832,3.938-9.135
			s6.354-3.459,11.168-3.459c1.974,0,3.75,0.186,5.34,0.549c1.588,0.365,2.972,0.781,4.148,1.26
			c1.174,0.479,2.188,0.896,3.039,1.262c0.848,0.365,1.518,0.545,2.01,0.545c0.658,0,1.164-0.207,1.52-0.617
			s0.644-1.105,0.861-2.094h6.162v14.373H125.172z"/>
		<path fill="#FFFFFF" d="M148.873,349.026c-0.109,2.457,2.219,3.684,6.984,3.684v6.736h-28.991v-6.736
			c4.65,0,6.979-1.227,6.979-3.684v-21.043c0-2.512-2.328-3.771-6.979-3.771v-6.566h22.006V349.026z M149.613,304.338
			c0,1.152-0.217,2.232-0.656,3.244c-0.437,1.014-1.028,1.906-1.765,2.672c-0.74,0.768-1.615,1.369-2.627,1.807
			c-1.014,0.438-2.096,0.656-3.246,0.656c-1.147,0-2.217-0.221-3.203-0.656c-0.983-0.438-1.86-1.039-2.625-1.807
			c-0.77-0.766-1.369-1.658-1.807-2.672c-0.439-1.012-0.658-2.092-0.658-3.244c0-1.148,0.219-2.217,0.658-3.199
			c0.438-0.986,1.037-1.848,1.807-2.59c0.765-0.738,1.642-1.326,2.625-1.764c0.986-0.439,2.056-0.656,3.203-0.656
			c1.15,0,2.232,0.219,3.246,0.656c1.012,0.438,1.887,1.023,2.627,1.764c0.736,0.742,1.328,1.604,1.765,2.59
			C149.396,302.122,149.613,303.19,149.613,304.338z"/>
		<path fill="#FFFFFF" d="M202.486,348.667c0,2.461,2.221,3.693,6.652,3.693v6.566h-21.434v-8.371
			c-1.641,2.791-3.807,5.023-6.486,6.691c-2.684,1.672-6.076,2.504-10.184,2.504c-4.438,0-7.678-0.973-9.734-2.914
			c-2.049-1.943-3.078-5.053-3.078-9.322v-20.117c0-2.467-2.352-3.697-7.061-3.697v-6.572h21.598v23.57
			c0,3.451,0.422,5.973,1.27,7.557c0.852,1.588,2.205,2.383,4.068,2.383c2.299,0,4.242-0.9,5.828-2.713
			c1.588-1.803,2.848-4.27,3.779-7.391v-13.057c0-1.26-0.492-2.203-1.479-2.834c-0.986-0.627-2.545-0.943-4.682-0.943v-6.572h20.939
			v31.539H202.486z"/>
		<path fill="#FFFFFF" d="M290.308,348.51c0,2.459,2.217,3.688,6.65,3.688v6.73h-26.115v-6.73c2.955,0,4.436-1.229,4.436-3.686
			v-12.936c0-3.439-0.369-5.945-1.104-7.529c-0.734-1.586-1.863-2.375-3.387-2.375c-2.016,0-3.852,0.857-5.514,2.574
			c-1.66,1.725-3.006,4.217-4.039,7.496v12.77c0,1.256,0.395,2.186,1.189,2.785c0.793,0.598,1.85,0.9,3.162,0.9v6.729h-23.816
			v-6.729c2.957,0,4.436-1.23,4.436-3.688v-12.934c0-3.439-0.369-5.947-1.104-7.531s-1.891-2.375-3.471-2.375
			c-2.064,0-3.932,0.859-5.592,2.576c-1.662,1.723-2.98,4.215-3.963,7.496v12.768c0,2.457,1.48,3.688,4.439,3.688v6.729h-26.035
			v-6.729c4.381,0,6.568-1.23,6.568-3.689v-21.137c0-2.459-2.162-3.688-6.486-3.688v-6.557h21.516l-0.066,8.459
			c1.701-2.789,3.91-5.033,6.627-6.732c2.717-1.697,5.994-2.543,9.836-2.543c3.293,0,6.092,0.773,8.398,2.338
			c2.303,1.561,3.699,3.928,4.197,7.105c3.721-6.299,9.225-9.443,16.504-9.443c3.834,0,6.914,0.969,9.24,2.902
			c2.328,1.941,3.492,5.041,3.492,9.305V348.51L290.308,348.51z"/>
	</g>
	<g>
		<g>
			<path fill="#FFFFFF" d="M146.881,281.44C69.289,281.44,6.16,218.319,6.16,140.72C6.16,63.128,69.289,0,146.881,0
				c77.591,0,140.718,63.128,140.718,140.72C287.599,218.319,224.472,281.44,146.881,281.44z M146.881,9.089
				C74.303,9.089,15.25,68.141,15.25,140.721s59.053,131.631,131.631,131.631c72.58,0,131.63-59.051,131.63-131.631
				C278.511,68.14,219.46,9.089,146.881,9.089z"/>
		</g>
		<g>
			<path fill="#FFFFFF" d="M146.881,200.94c-33.207,0-60.219-27.019-60.219-60.22c0-33.209,27.012-60.22,60.219-60.22
				c33.203,0,60.218,27.011,60.218,60.22C207.099,173.922,180.083,200.94,146.881,200.94z M146.881,88.194
				c-28.963,0-52.525,23.564-52.525,52.526s23.562,52.524,52.525,52.524c28.966,0,52.527-23.562,52.527-52.524
				S175.847,88.194,146.881,88.194z"/>
		</g>
		<g>
			<path fill="#FFFFFF" d="M71.018,161.154c-1.576-6.304-2.377-12.828-2.377-19.383c0-18.05,6.203-35.725,17.467-49.781
				c11.092-13.838,26.654-23.686,43.822-27.734l0.939,8.85c-14.972,3.533-28.541,12.127-38.222,24.201
				c-9.969,12.431-15.231,27.443-15.231,43.414c0,5.725,0.692,11.414,2.071,16.916L71.018,161.154z"/>
		</g>
		<g>
			<path fill="#FFFFFF" d="M223.123,161.154c1.584-6.304,2.379-12.828,2.379-19.383c0-18.05-6.203-35.725-17.467-49.781
				c-11.1-13.838-26.66-23.686-43.822-27.734l-0.934,8.85c14.965,3.533,28.533,12.127,38.213,24.201
				c9.967,12.431,15.234,27.443,15.234,43.414c0,5.725-0.699,11.414-2.072,16.916L223.123,161.154z"/>
		</g>
		<g>
			<path fill="#FFFFFF" d="M91.797,196.893c4.688,4.502,9.953,8.438,15.637,11.691c15.666,8.973,34.086,12.373,51.878,9.58
				c17.518-2.744,33.803-11.354,45.85-24.234l-7.221-5.217c-10.498,11.232-24.703,18.738-39.992,21.141
				c-15.733,2.471-31.384-0.422-45.239-8.359c-4.972-2.846-9.562-6.281-13.65-10.205L91.797,196.893z"/>
		</g>
		<g opacity="0.5">
			<path fill="#FFFFFF" d="M194.628,197.979"/>
		</g>
		<g opacity="0.5">
			<path fill="#FFFFFF" d="M220.085,154.915"/>
		</g>
		<g>
			<path fill="#FFFFFF" d="M159.72,140.721c0,7.092-5.756,12.839-12.839,12.839c-7.086,0-12.832-5.747-12.832-12.839
				c0-7.092,5.746-12.835,12.832-12.835C153.964,127.886,159.72,133.629,159.72,140.721z"/>
		</g>
		<path fill="#FFFFFF" d="M146.846,22.354c-65.588,0-118.949,53.362-118.949,118.95c0,65.583,53.361,118.942,118.949,118.942
			c65.582,0,118.943-53.359,118.943-118.942C265.789,75.717,212.427,22.354,146.846,22.354z M165.066,229.358l0.092,16.734
			l-35.116,0.203l-0.095-16.682c-41.526-7.932-73.012-44.51-73.012-88.311c0-12.642,2.623-24.674,7.348-35.592l-12.559-8.54
			l19.744-29.044l12.787,8.691c16.197-15.73,38.283-25.426,62.59-25.426c25.673,0,48.869,10.817,65.267,28.136l13.398-8.64
			l19.033,29.524l-13.705,8.826c3.82,9.964,5.918,20.771,5.918,32.063C236.757,184.635,205.937,220.911,165.066,229.358z"/>
	</g>
</g>
</svg>
