<?xml version="1.0" encoding="utf-8"?>
<!-- Generator: Adobe Illustrator 16.0.4, SVG Export Plug-In . SVG Version: 6.00 Build 0)  -->
<!DOCTYPE svg PUBLIC "-//W3C//DTD SVG 1.1//EN" "http://www.w3.org/Graphics/SVG/1.1/DTD/svg11.dtd">
<svg version="1.1" id="Layer_1" xmlns="http://www.w3.org/2000/svg" xmlns:xlink="http://www.w3.org/1999/xlink" x="0px" y="0px"
	 width="600px" height="600px" viewBox="0 0 600 600" enable-background="new 0 0 600 600" xml:space="preserve">
<rect x="-8.352" y="-8.352" fill="#EF4123" width="617.352" height="617.352"/>
<g>
	<g>
		<g>
			<g>
				<path fill="#FFFFFF" d="M300.333,439.43c-115.161,0-208.84-93.692-208.84-208.846c0-115.144,93.68-208.839,208.84-208.839
					c115.157,0,208.83,93.695,208.83,208.839C509.163,345.737,415.49,439.43,300.333,439.43z M300.333,35.235
					c-107.719,0-195.36,87.629-195.36,195.349s87.642,195.348,195.36,195.348c107.716,0,195.338-87.628,195.338-195.348
					S408.049,35.235,300.333,35.235z"/>
			</g>
			<g>
				<path fill="#FFFFFF" d="M300.333,319.962c-49.283,0-89.378-40.1-89.378-89.378c0-49.282,40.095-89.369,89.378-89.369
					c49.273,0,89.36,40.087,89.36,89.369C389.693,279.862,349.606,319.962,300.333,319.962z M300.333,152.626
					c-42.993,0-77.954,34.979-77.954,77.958c0,42.992,34.961,77.953,77.954,77.953c42.983,0,77.939-34.961,77.939-77.953
					C378.272,187.606,343.316,152.626,300.333,152.626z"/>
			</g>
			<g>
				<path fill="#FFFFFF" d="M187.731,260.91c-2.325-9.349-3.521-19.03-3.521-28.767c0-26.791,9.208-53.02,25.931-73.893
					c16.462-20.52,39.555-35.144,65.029-41.145l1.4,13.127c-22.211,5.249-42.357,17.997-56.729,35.917
					c-14.784,18.447-22.603,40.729-22.603,64.434c0,8.492,1.031,16.943,3.076,25.111L187.731,260.91z"/>
			</g>
			<g>
				<path fill="#FFFFFF" d="M413.475,260.91c2.344-9.349,3.533-19.03,3.533-28.767c0-26.791-9.209-53.02-25.927-73.893
					c-16.459-20.52-39.559-35.144-65.037-41.145l-1.382,13.127c22.209,5.249,42.349,17.997,56.727,35.917
					c14.782,18.447,22.612,40.729,22.612,64.434c0,8.492-1.054,16.943-3.107,25.111L413.475,260.91z"/>
			</g>
			<g>
				<path fill="#FFFFFF" d="M218.58,313.959c6.964,6.667,14.774,12.521,23.208,17.344c23.247,13.314,50.578,18.355,76.994,14.219
					c25.996-4.074,50.174-16.858,68.055-35.962l-10.717-7.745c-15.598,16.664-36.682,27.811-59.354,31.368
					c-23.369,3.676-46.591-0.621-67.159-12.407c-7.356-4.23-14.179-9.322-20.236-15.141L218.58,313.959z"/>
			</g>
			<g opacity="0.5">
				<path fill-rule="evenodd" clip-rule="evenodd" fill="#FFFFFF" d="M371.178,315.567"/>
			</g>
			<g opacity="0.5">
				<path fill-rule="evenodd" clip-rule="evenodd" fill="#FFFFFF" d="M408.979,251.648"/>
			</g>
			<g>
				<path fill-rule="evenodd" clip-rule="evenodd" fill="#FFFFFF" d="M319.386,230.584c0,10.527-8.534,19.055-19.053,19.055
					s-19.045-8.527-19.045-19.055c0-10.519,8.527-19.057,19.045-19.057S319.386,220.065,319.386,230.584z"/>
			</g>
			<path fill="#FFFFFF" d="M300.273,54.924c-97.33,0-176.523,79.187-176.523,176.531c0,97.317,79.193,176.516,176.523,176.516
				c97.329,0,176.527-79.198,176.527-176.516C476.8,134.111,397.602,54.924,300.273,54.924z M327.322,362.13l0.129,24.846
				l-52.106,0.297l-0.155-24.76c-61.615-11.776-108.348-66.066-108.348-131.058c0-18.756,3.904-36.619,10.919-52.822l-18.655-12.675
				l29.305-43.11l18.977,12.909c24.036-23.351,56.819-37.744,92.885-37.744c38.111,0,72.522,16.056,96.87,41.758l19.896-12.822
				l28.228,43.816l-20.331,13.094c5.665,14.791,8.781,30.829,8.781,47.596C433.717,295.76,387.976,349.6,327.322,362.13z"/>
		</g>
	</g>
	<g>
		<path fill="#FFFFFF" d="M123.994,539.959c0,12.796-3.547,22.48-10.657,29.061c-7.104,6.596-17.24,9.882-30.406,9.882
			c-5.304,0-10.354-0.577-15.142-1.713c-4.787-1.134-8.964-3.094-12.571-5.89c-3.601-2.796-6.459-6.587-8.597-11.374
			c-2.133-4.773-3.189-10.868-3.189-18.25c0-26.904,13.637-40.359,40.923-40.359c5.391,0,10.511,0.595,15.334,1.778
			c4.845,1.183,9.044,3.247,12.649,6.177c3.592,2.938,6.44,6.898,8.528,11.87C122.956,526.11,123.994,532.386,123.994,539.959z
			 M84.066,513.966c-5.118,0-8.884,1.827-11.296,5.46c-2.411,3.655-3.615,9.748-3.615,18.266c0,5.879,0.277,10.675,0.837,14.419
			c0.575,3.74,1.424,6.679,2.561,8.817c1.151,2.134,2.584,3.575,4.341,4.325c1.756,0.76,3.854,1.146,6.311,1.146
			c5.501,0,9.337-1.992,11.514-5.968c2.182-3.985,3.274-10.561,3.274-19.754c0-5.397-0.313-9.828-0.917-13.28
			c-0.635-3.458-1.528-6.187-2.709-8.176c-1.186-1.986-2.62-3.363-4.33-4.121C88.323,514.343,86.339,513.966,84.066,513.966z"/>
		<path fill="#FFFFFF" d="M189.215,529.024l-11.514,1c-1.229-5.693-3.959-9.732-8.175-12.145c-4.213-2.426-9.219-3.64-14.988-3.64
			c-3.502,0-6.221,0.593-8.161,1.791c-1.955,1.169-2.917,2.767-2.917,4.749c0,2.473,1.225,4.317,3.695,5.551
			c2.456,1.226,5.531,2.268,9.228,3.119c3.711,0.849,7.725,1.713,12.076,2.55c4.366,0.858,8.394,2.144,12.09,3.843
			c3.696,1.713,6.762,4.029,9.228,6.959c2.456,2.936,3.696,6.872,3.696,11.802c0,3.889-0.76,7.239-2.272,10.086
			c-1.528,2.834-3.522,5.213-6.038,7.106c-2.515,1.896-5.427,3.283-8.736,4.189c-3.318,0.897-6.737,1.354-10.223,1.354
			c-6.639,0-11.759-0.457-15.36-1.354c-3.596-0.906-6.535-1.978-8.805-3.189c-0.655-0.288-1.335-0.577-1.986-0.857
			c-0.669-0.288-1.333-0.431-1.998-0.431c-1.801,0-2.928,1.662-3.409,4.983H123.14v-25.726c1.896-0.196,3.79-0.332,5.686-0.424
			c1.895-0.091,3.785-0.193,5.68-0.287c0.576,2.558,1.732,4.829,3.479,6.82c1.747,1.982,3.914,3.672,6.463,5.053
			c2.559,1.376,5.373,2.408,8.459,3.116c3.075,0.701,6.176,1.066,9.312,1.066c3.407,0,6.057-0.717,7.952-2.134
			c1.896-1.421,2.838-3.226,2.838-5.417c0-2.283-0.852-3.983-2.55-5.119c-1.712-1.145-3.982-2.04-6.816-2.709
			c-2.849-0.663-6.098-1.282-9.749-1.851c-3.637-0.57-7.358-1.388-11.148-2.419c-7.104-1.907-12.145-4.641-15.126-8.195
			c-2.986-3.558-4.479-8.185-4.479-13.892c0-6.556,2.273-11.812,6.822-15.797c4.544-3.979,10.984-5.977,19.318-5.977
			c3.407,0,6.499,0.305,9.242,0.941c2.743,0.631,5.13,1.342,7.174,2.179c2.028,0.829,3.785,1.551,5.258,2.184
			c1.454,0.628,2.625,0.939,3.478,0.939c1.136,0,2.009-0.354,2.625-1.056c0.619-0.724,1.116-1.929,1.509-3.624h10.65V529.024z"/>
		<path fill="#FFFFFF" d="M259.995,529.024l-11.514,1c-1.226-5.693-3.95-9.732-8.162-12.145c-4.211-2.426-9.216-3.64-14.991-3.64
			c-3.513,0-6.231,0.593-8.171,1.791c-1.94,1.169-2.917,2.767-2.917,4.749c0,2.473,1.226,4.317,3.696,5.551
			c2.47,1.226,5.546,2.268,9.242,3.119c3.695,0.849,7.725,1.713,12.076,2.55c4.351,0.858,8.379,2.144,12.074,3.843
			c3.696,1.713,6.771,4.029,9.229,6.959c2.455,2.936,3.71,6.872,3.71,11.802c0,3.889-0.759,7.239-2.276,10.086
			c-1.523,2.834-3.532,5.213-6.049,7.106c-2.5,1.896-5.417,3.283-8.721,4.189c-3.328,0.897-6.742,1.354-10.239,1.354
			c-6.638,0-11.758-0.457-15.35-1.354c-3.592-0.906-6.543-1.978-8.805-3.189c-0.665-0.288-1.34-0.577-1.995-0.857
			c-0.664-0.288-1.333-0.431-1.983-0.431c-1.807,0-2.942,1.662-3.414,4.983h-11.51v-25.726c1.906-0.196,3.786-0.332,5.68-0.424
			c1.896-0.091,3.786-0.193,5.68-0.287c0.577,2.558,1.737,4.829,3.478,6.82c1.757,1.982,3.915,3.672,6.475,5.053
			c2.549,1.376,5.373,2.408,8.463,3.116c3.061,0.701,6.17,1.066,9.307,1.066c3.398,0,6.052-0.717,7.958-2.134
			c1.89-1.421,2.833-3.226,2.833-5.417c0-2.283-0.849-3.983-2.56-5.119c-1.697-1.145-3.974-2.04-6.816-2.709
			c-2.849-0.663-6.088-1.282-9.74-1.851c-3.646-0.57-7.367-1.388-11.152-2.419c-7.093-1.907-12.144-4.641-15.13-8.195
			c-2.986-3.558-4.475-8.185-4.475-13.892c0-6.556,2.273-11.812,6.817-15.797c4.543-3.979,10.984-5.977,19.317-5.977
			c3.424,0,6.499,0.305,9.244,0.941c2.742,0.631,5.139,1.342,7.172,2.179c2.044,0.829,3.8,1.551,5.259,2.184
			c1.469,0.628,2.624,0.939,3.488,0.939c1.125,0,2.008-0.354,2.619-1.056c0.615-0.724,1.122-1.929,1.503-3.624h10.651V529.024z"/>
		<path fill="#FFFFFF" d="M301.007,559.339c-0.184,4.248,3.835,6.389,12.077,6.389v11.646h-50.163v-11.646
			c8.047,0,12.075-2.141,12.075-6.389V522.93c0-4.33-4.027-6.509-12.075-6.509v-11.374h38.085V559.339z M302.293,482.034
			c0,1.982-0.387,3.852-1.146,5.611c-0.744,1.753-1.766,3.292-3.051,4.622c-1.291,1.325-2.793,2.365-4.55,3.114
			c-1.756,0.769-3.628,1.147-5.601,1.147c-1.994,0-3.845-0.379-5.547-1.147c-1.706-0.749-3.234-1.789-4.544-3.114
			c-1.33-1.33-2.376-2.869-3.135-4.622c-0.754-1.76-1.131-3.629-1.131-5.611c0-1.991,0.376-3.836,1.131-5.551
			c0.759-1.709,1.805-3.203,3.135-4.462c1.31-1.285,2.838-2.299,4.544-3.067c1.702-0.758,3.553-1.136,5.547-1.136
			c1.973,0,3.845,0.378,5.601,1.136c1.756,0.769,3.259,1.782,4.55,3.067c1.285,1.259,2.307,2.753,3.051,4.462
			C301.906,478.198,302.293,480.043,302.293,482.034z"/>
		<path fill="#FFFFFF" d="M393.77,558.72c0,4.262,3.832,6.396,11.499,6.396v11.376H368.18v-14.497
			c-2.836,4.834-6.575,8.688-11.209,11.579c-4.655,2.882-10.519,4.316-17.624,4.316c-7.677,0-13.294-1.663-16.836-5.036
			c-3.553-3.353-5.337-8.726-5.337-16.118v-34.817c0-4.27-4.068-6.393-12.217-6.393v-11.36h37.379v40.771
			c0,5.973,0.732,10.332,2.191,13.085c1.479,2.742,3.82,4.112,7.035,4.112c3.979,0,7.342-1.564,10.091-4.698
			c2.737-3.109,4.923-7.38,6.526-12.784v-22.592c0-2.17-0.833-3.812-2.548-4.9c-1.707-1.083-4.406-1.633-8.096-1.633v-11.36h36.233
			V558.72z"/>
		<path fill="#FFFFFF" d="M545.716,558.457c0,4.246,3.831,6.371,11.5,6.371v11.663h-45.177v-11.663c5.121,0,7.663-2.125,7.663-6.371
			v-22.374c0-5.954-0.626-10.293-1.907-13.035c-1.27-2.747-3.214-4.109-5.854-4.109c-3.484,0-6.667,1.487-9.534,4.464
			c-2.878,2.972-5.199,7.288-6.994,12.957v22.098c0,2.17,0.694,3.775,2.062,4.812c1.368,1.042,3.194,1.56,5.467,1.56v11.663h-41.206
			v-11.663c5.11,0,7.67-2.125,7.67-6.371v-22.374c0-5.954-0.644-10.293-1.904-13.035c-1.261-2.747-3.274-4.109-6.004-4.109
			c-3.581,0-6.796,1.487-9.683,4.464c-2.869,2.972-5.15,7.288-6.848,12.957v22.098c0,4.246,2.56,6.371,7.672,6.371v11.663h-45.037
			v-11.663c7.578,0,11.37-2.125,11.37-6.371v-36.585c0-4.241-3.752-6.366-11.231-6.366v-11.341h37.227l-0.106,14.633
			c2.944-4.832,6.754-8.724,11.458-11.652c4.693-2.938,10.367-4.406,17.014-4.406c5.698,0,10.55,1.339,14.528,4.038
			c3.987,2.709,6.409,6.808,7.262,12.31c6.451-10.908,15.977-16.348,28.566-16.348c6.638,0,11.946,1.678,15.984,5.025
			c4.037,3.363,6.042,8.728,6.042,16.097V558.457z"/>
	</g>
</g>
</svg>
