<?xml version="1.0" encoding="utf-8"?>
<!-- Generator: Adobe Illustrator 16.0.4, SVG Export Plug-In . SVG Version: 6.00 Build 0)  -->
<!DOCTYPE svg PUBLIC "-//W3C//DTD SVG 1.1//EN" "http://www.w3.org/Graphics/SVG/1.1/DTD/svg11.dtd">
<svg version="1.1" id="Layer_1" xmlns="http://www.w3.org/2000/svg" xmlns:xlink="http://www.w3.org/1999/xlink" x="0px" y="0px"
	 width="1697.068px" height="391.113px" viewBox="0 0 1697.068 391.113" enable-background="new 0 0 1697.068 391.113"
	 xml:space="preserve">
<g>
	<g>
		<path fill="#FFFFFF" d="M1159.031,2.781c75.609,0,137.107,61.512,137.107,137.113c0,75.596-61.498,137.107-137.107,137.107
			c-75.602,0-137.1-61.512-137.1-137.107C1021.932,64.293,1083.43,2.781,1159.031,2.781z M1159.031,268.146
			c70.723,0,128.262-57.532,128.262-128.252c0-70.719-57.539-128.251-128.262-128.251c-70.715,0-128.24,57.532-128.24,128.251
			C1030.791,210.614,1088.316,268.146,1159.031,268.146z"/>
	</g>
	<g>
		<path fill="#FFFFFF" d="M264.083,81.217c32.354,0,58.679,26.326,58.679,58.678c0,32.355-26.324,58.672-58.679,58.672
			c-32.349,0-58.665-26.316-58.665-58.672C205.417,107.543,231.734,81.217,264.083,81.217z M264.083,191.076
			c28.226,0,51.181-22.966,51.181-51.182c0-28.225-22.955-51.178-51.181-51.178c-28.219,0-51.167,22.953-51.167,51.178
			C212.916,168.11,235.864,191.076,264.083,191.076z"/>
	</g>
	<g>
		<g>
			<path fill="#FFFFFF" d="M582.646,120.923c1.525,6.139,2.312,12.494,2.312,18.887c0,17.588-6.045,34.809-17.027,48.51
				c-10.807,13.473-25.965,23.074-42.693,27.014l-0.918-8.617c14.586-3.445,27.809-11.816,37.248-23.58
				c9.705-12.109,14.838-26.74,14.838-42.303c0-5.576-0.678-11.123-2.02-16.486L582.646,120.923z"/>
		</g>
		<g>
			<path fill="#FFFFFF" d="M434.439,120.923c-1.537,6.139-2.319,12.494-2.319,18.887c0,17.588,6.045,34.809,17.021,48.51
				c10.807,13.473,25.971,23.074,42.7,27.014l0.906-8.617c-14.581-3.445-27.804-11.816-37.242-23.58
				c-9.706-12.109-14.846-26.74-14.846-42.303c0-5.576,0.69-11.123,2.039-16.486L434.439,120.923z"/>
		</g>
		<g>
			<path fill="#FFFFFF" d="M562.394,86.097c-4.572-4.379-9.699-8.221-15.236-11.387c-15.262-8.742-33.207-12.051-50.549-9.336
				c-17.067,2.674-32.941,11.068-44.68,23.611l7.035,5.084c10.239-10.941,24.081-18.26,38.967-20.594
				c15.342-2.414,30.59,0.406,44.094,8.145c4.828,2.775,9.309,6.121,13.283,9.941L562.394,86.097z"/>
		</g>
		<g opacity="0.5">
			<path fill-rule="evenodd" clip-rule="evenodd" fill="#FFFFFF" d="M462.208,85.04"/>
		</g>
	</g>
	<g opacity="0.5">
		<path fill-rule="evenodd" clip-rule="evenodd" fill="#FFFFFF" d="M142.628,139.892"/>
	</g>
	<g>
		<path fill-rule="evenodd" clip-rule="evenodd" fill="#FFFFFF" d="M50.113,139.892c0-6.912,5.602-12.51,12.507-12.51
			s12.507,5.598,12.507,12.51c0,6.904-5.602,12.51-12.507,12.51S50.113,146.796,50.113,139.892z"/>
	</g>
	<path fill="#FFFFFF" d="M808.892,255.782c63.905,0,115.893-51.988,115.893-115.896c0-63.891-51.988-115.885-115.893-115.885
		c-63.895,0-115.891,51.994-115.891,115.885C693.001,203.794,744.998,255.782,808.892,255.782z M791.136,54.096l-0.086-16.312
		l34.213-0.195l0.098,16.256c40.452,7.732,71.133,43.373,71.133,86.041c0,12.314-2.561,24.043-7.166,34.68l12.246,8.322
		l-19.242,28.3l-12.455-8.475c-15.783,15.331-37.305,24.779-60.985,24.779c-25.02,0-47.609-10.54-63.596-27.414l-13.061,8.419
		l-18.533-28.766l13.348-8.599c-3.719-9.709-5.764-20.239-5.764-31.247C721.287,97.668,751.316,62.323,791.136,54.096z"/>
	<g>
		<path fill="#FFFFFF" d="M770.032,347.741c-1.109,0-2.139-0.16-3.088-0.479c-0.949-0.32-1.776-0.801-2.479-1.44
			c-0.704-0.64-1.254-1.439-1.648-2.4c-0.395-0.96-0.592-2.079-0.592-3.359v-14.336h2.304v14.176c0,1.941,0.49,3.392,1.472,4.352
			s2.325,1.44,4.032,1.44c1.686,0,3.024-0.48,4.017-1.44c0.991-0.96,1.487-2.41,1.487-4.352v-14.176h2.305v14.336
			c0,1.28-0.198,2.399-0.593,3.359c-0.395,0.961-0.943,1.761-1.647,2.4s-1.531,1.12-2.48,1.44
			C772.17,347.581,771.141,347.741,770.032,347.741z"/>
		<path fill="#FFFFFF" d="M788.816,335.646l-6.272-9.92h2.624l4.32,6.784c0.171,0.319,0.331,0.64,0.48,0.96
			c0.085,0.191,0.159,0.373,0.224,0.544c0.043-0.171,0.106-0.353,0.192-0.544c0.063-0.171,0.133-0.336,0.208-0.496
			c0.074-0.16,0.165-0.314,0.271-0.464l4.288-6.784h2.528l-6.24,9.92l7.52,11.84h-2.624l-5.535-8.704
			c-0.107-0.148-0.203-0.309-0.288-0.479c-0.086-0.171-0.16-0.342-0.225-0.513c-0.085-0.191-0.16-0.373-0.224-0.544
			c-0.043,0.171-0.107,0.353-0.192,0.544c-0.063,0.171-0.139,0.342-0.224,0.513c-0.086,0.171-0.171,0.331-0.256,0.479l-5.504,8.704
			h-2.528L788.816,335.646z"/>
		<path fill="#FFFFFF" d="M813.456,338.174h-4.32v-1.952h4.32v-4.672h2.048v4.672h4.352v1.952h-4.352v4.64h-2.048V338.174z"/>
		<path fill="#FFFFFF" d="M839.28,347.741c-1.109,0-2.139-0.16-3.088-0.479c-0.949-0.32-1.776-0.801-2.479-1.44
			c-0.704-0.64-1.254-1.439-1.648-2.4c-0.395-0.96-0.592-2.079-0.592-3.359v-14.336h2.304v14.176c0,1.941,0.49,3.392,1.472,4.352
			s2.325,1.44,4.032,1.44c1.686,0,3.024-0.48,4.017-1.44c0.991-0.96,1.487-2.41,1.487-4.352v-14.176h2.305v14.336
			c0,1.28-0.198,2.399-0.593,3.359c-0.395,0.961-0.943,1.761-1.647,2.4s-1.531,1.12-2.48,1.44
			C841.418,347.581,840.389,347.741,839.28,347.741z"/>
		<path fill="#FFFFFF" d="M852.943,325.726h2.336v21.76h-2.336V325.726z"/>
		<path fill="#FFFFFF" d="M744.864,372.638h2.239l-0.063,2.848c0.468-0.917,1.127-1.669,1.979-2.256
			c0.851-0.586,1.904-0.88,3.159-0.88c0.894,0,1.729,0.176,2.505,0.528c0.776,0.352,1.452,0.832,2.026,1.439
			c0.574,0.608,1.026,1.334,1.356,2.177c0.329,0.843,0.494,1.755,0.494,2.735c0,1.003-0.165,1.926-0.494,2.769
			c-0.33,0.843-0.782,1.567-1.356,2.176s-1.256,1.088-2.043,1.439c-0.787,0.353-1.627,0.528-2.521,0.528
			c-1.191,0-2.223-0.282-3.095-0.848c-0.873-0.565-1.521-1.285-1.947-2.16v9.536h-2.239V372.638z M751.696,384.189
			c1.402,0,2.513-0.465,3.332-1.396c0.818-0.931,1.228-2.124,1.228-3.579c0-0.706-0.106-1.364-0.319-1.975s-0.521-1.129-0.925-1.557
			c-0.404-0.429-0.882-0.766-1.435-1.012c-0.554-0.246-1.181-0.369-1.881-0.369c-0.702,0-1.34,0.123-1.914,0.369
			s-1.068,0.583-1.482,1.012c-0.415,0.428-0.734,0.946-0.957,1.557c-0.224,0.61-0.335,1.269-0.335,1.975
			c0,0.728,0.111,1.396,0.335,2.007c0.223,0.609,0.542,1.134,0.957,1.572c0.414,0.439,0.908,0.782,1.482,1.027
			C750.356,384.066,750.994,384.189,751.696,384.189z"/>
		<path fill="#FFFFFF" d="M762.463,372.638h2.24l-0.064,2.592c0.427-1.023,0.981-1.754,1.664-2.191s1.419-0.656,2.208-0.656
			c0.49,0,0.923,0.053,1.296,0.157c0.373,0.105,0.709,0.263,1.008,0.473l-0.863,1.93c-0.214-0.148-0.465-0.271-0.753-0.367
			c-0.287-0.097-0.645-0.145-1.071-0.145c-0.939,0-1.744,0.354-2.416,1.059c-0.672,0.706-1.008,1.841-1.008,3.402v6.995h-2.24
			V372.638z"/>
		<path fill="#FFFFFF" d="M779.776,386.142c-1.003,0-1.932-0.176-2.784-0.528c-0.854-0.352-1.595-0.837-2.224-1.455
			c-0.63-0.619-1.126-1.35-1.488-2.192c-0.363-0.843-0.544-1.744-0.544-2.704s0.181-1.861,0.544-2.704
			c0.362-0.843,0.858-1.578,1.488-2.208c0.629-0.629,1.37-1.12,2.224-1.472c0.853-0.353,1.781-0.528,2.784-0.528
			c0.98,0,1.898,0.176,2.752,0.528c0.853,0.352,1.589,0.843,2.208,1.472c0.618,0.63,1.108,1.365,1.472,2.208
			c0.362,0.843,0.544,1.744,0.544,2.704s-0.182,1.861-0.544,2.704c-0.363,0.843-0.854,1.573-1.472,2.192
			c-0.619,0.618-1.355,1.104-2.208,1.455C781.674,385.966,780.756,386.142,779.776,386.142z M779.776,384.189
			c0.709,0,1.353-0.122,1.933-0.366s1.079-0.59,1.498-1.037c0.419-0.446,0.741-0.973,0.967-1.579
			c0.226-0.605,0.338-1.26,0.338-1.961c0-0.702-0.112-1.355-0.338-1.962c-0.226-0.605-0.548-1.132-0.967-1.579
			c-0.419-0.446-0.918-0.792-1.498-1.036c-0.58-0.245-1.224-0.367-1.933-0.367s-1.358,0.122-1.949,0.367
			c-0.591,0.244-1.096,0.59-1.514,1.036c-0.419,0.447-0.747,0.974-0.982,1.579c-0.237,0.606-0.354,1.26-0.354,1.962
			c0,0.701,0.117,1.355,0.354,1.961c0.235,0.606,0.563,1.133,0.982,1.579c0.418,0.447,0.923,0.793,1.514,1.037
			S779.067,384.189,779.776,384.189z"/>
		<path fill="#FFFFFF" d="M794.847,386.174c-0.512,0-0.982-0.075-1.413-0.224c-0.43-0.149-0.808-0.395-1.132-0.736
			c-0.325-0.341-0.579-0.784-0.763-1.328c-0.185-0.544-0.276-1.211-0.276-2v-7.36h-2.048v-1.888h2.048v-6.912h2.24v6.912h3.712
			v1.888h-3.712v7.393c0,0.896,0.139,1.504,0.416,1.824c0.277,0.319,0.661,0.479,1.152,0.479c0.447,0,0.805-0.08,1.071-0.24
			s0.507-0.336,0.721-0.527l1.216,1.407c-0.299,0.3-0.71,0.593-1.232,0.881C796.325,386.029,795.658,386.174,794.847,386.174z"/>
		<path fill="#FFFFFF" d="M807.295,386.142c-1.003,0-1.932-0.176-2.784-0.528c-0.854-0.352-1.595-0.837-2.224-1.455
			c-0.63-0.619-1.126-1.35-1.488-2.192c-0.363-0.843-0.544-1.744-0.544-2.704s0.181-1.861,0.544-2.704
			c0.362-0.843,0.858-1.578,1.488-2.208c0.629-0.629,1.37-1.12,2.224-1.472c0.853-0.353,1.781-0.528,2.784-0.528
			c0.98,0,1.898,0.176,2.752,0.528c0.853,0.352,1.589,0.843,2.208,1.472c0.618,0.63,1.108,1.365,1.472,2.208
			c0.362,0.843,0.544,1.744,0.544,2.704s-0.182,1.861-0.544,2.704c-0.363,0.843-0.854,1.573-1.472,2.192
			c-0.619,0.618-1.355,1.104-2.208,1.455C809.194,385.966,808.276,386.142,807.295,386.142z M807.295,384.189
			c0.709,0,1.353-0.122,1.933-0.366s1.079-0.59,1.498-1.037c0.419-0.446,0.741-0.973,0.967-1.579
			c0.226-0.605,0.338-1.26,0.338-1.961c0-0.702-0.112-1.355-0.338-1.962c-0.226-0.605-0.548-1.132-0.967-1.579
			c-0.419-0.446-0.918-0.792-1.498-1.036c-0.58-0.245-1.224-0.367-1.933-0.367s-1.358,0.122-1.949,0.367
			c-0.591,0.244-1.096,0.59-1.514,1.036c-0.419,0.447-0.747,0.974-0.982,1.579c-0.237,0.606-0.354,1.26-0.354,1.962
			c0,0.701,0.117,1.355,0.354,1.961c0.235,0.606,0.563,1.133,0.982,1.579c0.418,0.447,0.923,0.793,1.514,1.037
			S806.586,384.189,807.295,384.189z"/>
		<path fill="#FFFFFF" d="M822.368,386.174c-0.512,0-0.982-0.075-1.413-0.224c-0.43-0.149-0.808-0.395-1.132-0.736
			c-0.325-0.341-0.579-0.784-0.763-1.328c-0.185-0.544-0.276-1.211-0.276-2v-7.36h-2.048v-1.888h2.048v-6.912h2.24v6.912h3.712
			v1.888h-3.712v7.393c0,0.896,0.139,1.504,0.416,1.824c0.277,0.319,0.661,0.479,1.152,0.479c0.447,0,0.805-0.08,1.071-0.24
			s0.507-0.336,0.721-0.527l1.216,1.407c-0.299,0.3-0.71,0.593-1.232,0.881C823.845,386.029,823.178,386.174,822.368,386.174z"/>
		<path fill="#FFFFFF" d="M832.832,384.766l-5.632-12.128h2.464l3.744,8.224c0.085,0.214,0.171,0.448,0.256,0.704
			s0.149,0.502,0.192,0.736c0.063,0.256,0.117,0.523,0.16,0.8c0.042-0.276,0.096-0.544,0.16-0.8c0.042-0.234,0.101-0.48,0.176-0.736
			c0.074-0.256,0.165-0.49,0.271-0.704l3.456-8.224h2.305l-8.641,20.032h-2.304L832.832,384.766z"/>
		<path fill="#FFFFFF" d="M843.584,372.638h2.239l-0.063,2.848c0.468-0.917,1.127-1.669,1.979-2.256
			c0.851-0.586,1.904-0.88,3.16-0.88c0.893,0,1.729,0.176,2.504,0.528c0.777,0.352,1.453,0.832,2.027,1.439
			c0.574,0.608,1.025,1.334,1.355,2.177s0.494,1.755,0.494,2.735c0,1.003-0.164,1.926-0.494,2.769s-0.781,1.567-1.355,2.176
			s-1.256,1.088-2.043,1.439c-0.787,0.353-1.627,0.528-2.521,0.528c-1.191,0-2.222-0.282-3.094-0.848
			c-0.873-0.565-1.521-1.285-1.947-2.16v9.536h-2.239V372.638z M850.416,384.189c1.402,0,2.514-0.465,3.332-1.396
			c0.818-0.931,1.229-2.124,1.229-3.579c0-0.706-0.107-1.364-0.32-1.975s-0.52-1.129-0.924-1.557
			c-0.404-0.429-0.883-0.766-1.436-1.012s-1.18-0.369-1.881-0.369s-1.34,0.123-1.914,0.369c-0.574,0.246-1.068,0.583-1.482,1.012
			c-0.415,0.428-0.734,0.946-0.957,1.557c-0.224,0.61-0.335,1.269-0.335,1.975c0,0.728,0.111,1.396,0.335,2.007
			c0.223,0.609,0.542,1.134,0.957,1.572c0.414,0.439,0.908,0.782,1.482,1.027C849.076,384.066,849.715,384.189,850.416,384.189z"/>
		<path fill="#FFFFFF" d="M862.592,379.998c0.148,1.279,0.639,2.31,1.471,3.088s1.984,1.168,3.457,1.168
			c1.002,0,1.844-0.171,2.527-0.512c0.682-0.342,1.236-0.758,1.664-1.248l1.377,1.344c-0.619,0.683-1.377,1.237-2.273,1.664
			s-1.994,0.64-3.295,0.64c-1.088,0-2.076-0.176-2.961-0.528c-0.885-0.352-1.637-0.837-2.256-1.455
			c-0.619-0.619-1.1-1.35-1.439-2.192c-0.342-0.843-0.512-1.744-0.512-2.704s0.176-1.861,0.527-2.704s0.832-1.578,1.439-2.208
			c0.609-0.629,1.334-1.12,2.176-1.472c0.844-0.353,1.744-0.528,2.705-0.528c1.066,0,2.021,0.192,2.863,0.576
			c0.844,0.384,1.553,0.917,2.129,1.6c0.576,0.684,1.008,1.494,1.295,2.433c0.289,0.938,0.41,1.952,0.369,3.04H862.592z
			 M871.615,378.302c-0.043-0.576-0.166-1.109-0.369-1.6c-0.203-0.491-0.49-0.917-0.863-1.28c-0.373-0.362-0.822-0.65-1.344-0.864
			c-0.523-0.213-1.137-0.32-1.84-0.32c-1.281,0-2.32,0.374-3.121,1.12c-0.799,0.747-1.285,1.729-1.455,2.944H871.615z"/>
	</g>
	<g>
		<path fill="#FFFFFF" d="M34.112,347.773c-1.836,0-3.265-0.539-4.288-1.616c-1.024-1.077-1.536-2.586-1.536-4.528v-7.392h2.24
			v7.316c0,1.391,0.28,2.449,0.844,3.177c0.562,0.728,1.481,1.091,2.756,1.091c1.273,0,2.198-0.363,2.771-1.091
			s0.86-1.786,0.86-3.177v-7.316H40v7.392c0,1.942-0.528,3.451-1.584,4.528C37.359,347.234,35.925,347.773,34.112,347.773z"/>
		<path fill="#FFFFFF" d="M49.056,347.741c-1.473,0-2.678-0.304-3.616-0.912c-0.939-0.607-1.622-1.328-2.048-2.16l1.728-0.991
			c0.384,0.64,0.88,1.173,1.488,1.6c0.607,0.427,1.392,0.64,2.352,0.64c0.896,0,1.589-0.176,2.08-0.527
			c0.49-0.353,0.736-0.837,0.736-1.456c0-0.362-0.075-0.661-0.225-0.896c-0.149-0.234-0.367-0.437-0.655-0.607
			s-0.646-0.325-1.072-0.464s-0.928-0.294-1.504-0.465c-0.512-0.148-1.014-0.319-1.504-0.512c-0.491-0.192-0.918-0.437-1.28-0.736
			c-0.363-0.298-0.656-0.666-0.88-1.104s-0.336-0.965-0.336-1.584c0-1.152,0.421-2.043,1.264-2.672s1.872-0.944,3.088-0.944
			c1.024,0,1.898,0.192,2.624,0.576s1.323,0.907,1.792,1.568l-1.536,1.184c-0.341-0.469-0.746-0.837-1.216-1.104
			c-0.469-0.267-1.023-0.4-1.664-0.4c-0.726,0-1.291,0.155-1.695,0.464c-0.406,0.31-0.608,0.72-0.608,1.232
			c0,0.319,0.053,0.587,0.16,0.8c0.106,0.213,0.282,0.399,0.528,0.56c0.244,0.16,0.57,0.31,0.976,0.448s0.896,0.294,1.472,0.464
			c0.555,0.149,1.099,0.325,1.633,0.528c0.532,0.203,1.002,0.459,1.407,0.768c0.405,0.31,0.73,0.688,0.977,1.137
			c0.245,0.447,0.368,0.991,0.368,1.632c0,1.131-0.39,2.069-1.168,2.815C51.94,347.368,50.72,347.741,49.056,347.741z"/>
		<path fill="#FFFFFF" d="M59.136,341.598c0.148,1.279,0.64,2.31,1.472,3.088s1.984,1.168,3.456,1.168
			c1.002,0,1.845-0.171,2.528-0.512c0.682-0.342,1.236-0.758,1.664-1.248l1.376,1.344c-0.619,0.683-1.376,1.237-2.272,1.664
			s-1.995,0.64-3.296,0.64c-1.088,0-2.075-0.176-2.96-0.528c-0.886-0.352-1.638-0.837-2.256-1.455c-0.619-0.619-1.1-1.35-1.44-2.192
			c-0.342-0.843-0.512-1.744-0.512-2.704s0.176-1.861,0.528-2.704c0.352-0.843,0.832-1.578,1.439-2.208
			c0.608-0.629,1.333-1.12,2.176-1.472c0.843-0.353,1.744-0.528,2.704-0.528c1.066,0,2.021,0.192,2.864,0.576s1.552,0.917,2.128,1.6
			c0.576,0.684,1.008,1.494,1.296,2.433s0.41,1.952,0.368,3.04H59.136z M68.159,339.901c-0.043-0.576-0.165-1.109-0.368-1.6
			c-0.203-0.491-0.49-0.917-0.863-1.28c-0.374-0.362-0.822-0.65-1.345-0.864c-0.522-0.213-1.136-0.32-1.84-0.32
			c-1.28,0-2.319,0.374-3.12,1.12c-0.8,0.747-1.285,1.729-1.456,2.944H68.159z"/>
		<path fill="#FFFFFF" d="M74.239,334.237h2.24l-0.064,2.592c0.427-1.023,0.981-1.754,1.664-2.191s1.419-0.656,2.208-0.656
			c0.49,0,0.923,0.053,1.296,0.157c0.373,0.105,0.709,0.263,1.008,0.473l-0.863,1.93c-0.214-0.148-0.465-0.271-0.753-0.367
			c-0.287-0.097-0.645-0.145-1.071-0.145c-0.939,0-1.744,0.354-2.416,1.059c-0.672,0.706-1.008,1.841-1.008,3.402v6.995h-2.24
			V334.237z"/>
		<path fill="#FFFFFF" d="M6.88,376.142c-0.981,0-1.888-0.176-2.72-0.528c-0.832-0.352-1.558-0.837-2.177-1.455
			c-0.618-0.619-1.104-1.35-1.455-2.192C0.176,371.123,0,370.222,0,369.262s0.176-1.861,0.528-2.704
			c0.352-0.843,0.837-1.578,1.455-2.208c0.619-0.629,1.345-1.12,2.177-1.472c0.832-0.353,1.738-0.528,2.72-0.528
			c1.194,0,2.208,0.205,3.04,0.614s1.557,0.983,2.176,1.722l-1.6,1.312c-0.405-0.533-0.901-0.949-1.488-1.248
			s-1.296-0.448-2.128-0.448c-0.704,0-1.339,0.123-1.904,0.369s-1.045,0.595-1.439,1.044c-0.396,0.449-0.699,0.974-0.912,1.573
			c-0.214,0.599-0.32,1.252-0.32,1.958s0.106,1.359,0.32,1.958c0.213,0.6,0.517,1.124,0.912,1.573
			c0.395,0.449,0.874,0.798,1.439,1.043c0.565,0.246,1.2,0.369,1.904,0.369c0.917,0,1.675-0.165,2.272-0.496
			c0.597-0.33,1.108-0.74,1.535-1.231l1.536,1.312c-0.619,0.747-1.354,1.328-2.208,1.744S8.117,376.142,6.88,376.142z"/>
		<path fill="#FFFFFF" d="M17.024,369.998c0.148,1.279,0.64,2.31,1.472,3.088s1.984,1.168,3.456,1.168
			c1.002,0,1.845-0.171,2.528-0.512c0.682-0.342,1.236-0.758,1.664-1.248l1.376,1.344c-0.619,0.683-1.376,1.237-2.272,1.664
			s-1.995,0.64-3.296,0.64c-1.088,0-2.075-0.176-2.96-0.528c-0.886-0.352-1.638-0.837-2.256-1.455c-0.619-0.619-1.1-1.35-1.44-2.192
			c-0.342-0.843-0.512-1.744-0.512-2.704s0.176-1.861,0.528-2.704c0.352-0.843,0.832-1.578,1.439-2.208
			c0.608-0.629,1.333-1.12,2.176-1.472c0.843-0.353,1.744-0.528,2.704-0.528c1.066,0,2.021,0.192,2.864,0.576s1.552,0.917,2.128,1.6
			c0.576,0.684,1.008,1.494,1.296,2.433s0.41,1.952,0.368,3.04H17.024z M26.048,368.302c-0.043-0.576-0.165-1.109-0.368-1.6
			c-0.203-0.491-0.49-0.917-0.863-1.28c-0.374-0.362-0.822-0.65-1.345-0.864c-0.522-0.213-1.136-0.32-1.84-0.32
			c-1.28,0-2.319,0.374-3.12,1.12c-0.8,0.747-1.285,1.729-1.456,2.944H26.048z"/>
		<path fill="#FFFFFF" d="M32.128,362.638h2.24l-0.064,2.72c0.427-0.96,1.056-1.7,1.888-2.224c0.832-0.522,1.792-0.784,2.88-0.784
			c1.473,0,2.667,0.48,3.585,1.44c0.917,0.96,1.376,2.304,1.376,4.031v8.064h-2.24v-7.808c0-1.174-0.272-2.08-0.816-2.721
			c-0.544-0.64-1.371-0.96-2.479-0.96c-1.238,0-2.235,0.368-2.992,1.104c-0.758,0.735-1.136,1.766-1.136,3.088v7.296h-2.24V362.638z
			"/>
		<path fill="#FFFFFF" d="M52.832,376.174c-0.512,0-0.982-0.075-1.413-0.224c-0.43-0.149-0.808-0.395-1.132-0.736
			c-0.325-0.341-0.579-0.784-0.763-1.328c-0.185-0.544-0.276-1.211-0.276-2v-7.36H47.2v-1.888h2.048v-6.912h2.24v6.912H55.2v1.888
			h-3.712v7.393c0,0.896,0.139,1.504,0.416,1.824c0.277,0.319,0.661,0.479,1.152,0.479c0.447,0,0.805-0.08,1.071-0.24
			s0.507-0.336,0.721-0.527l1.216,1.407c-0.299,0.3-0.71,0.593-1.232,0.881C54.31,376.029,53.643,376.174,52.832,376.174z"/>
		<path fill="#FFFFFF" d="M60.48,369.998c0.148,1.279,0.64,2.31,1.472,3.088s1.984,1.168,3.456,1.168
			c1.002,0,1.845-0.171,2.528-0.512c0.682-0.342,1.236-0.758,1.664-1.248l1.376,1.344c-0.619,0.683-1.376,1.237-2.272,1.664
			s-1.995,0.64-3.296,0.64c-1.088,0-2.075-0.176-2.96-0.528c-0.886-0.352-1.638-0.837-2.256-1.455c-0.619-0.619-1.1-1.35-1.44-2.192
			c-0.342-0.843-0.512-1.744-0.512-2.704s0.176-1.861,0.528-2.704c0.352-0.843,0.832-1.578,1.439-2.208
			c0.608-0.629,1.333-1.12,2.176-1.472c0.843-0.353,1.744-0.528,2.704-0.528c1.066,0,2.021,0.192,2.864,0.576s1.552,0.917,2.128,1.6
			c0.576,0.684,1.008,1.494,1.296,2.433s0.41,1.952,0.368,3.04H60.48z M69.504,368.302c-0.043-0.576-0.165-1.109-0.368-1.6
			c-0.203-0.491-0.49-0.917-0.863-1.28c-0.374-0.362-0.822-0.65-1.345-0.864c-0.522-0.213-1.136-0.32-1.84-0.32
			c-1.28,0-2.319,0.374-3.12,1.12c-0.8,0.747-1.285,1.729-1.456,2.944H69.504z"/>
		<path fill="#FFFFFF" d="M75.584,362.638h2.24l-0.064,2.592c0.427-1.023,0.981-1.754,1.664-2.191s1.419-0.656,2.208-0.656
			c0.49,0,0.923,0.053,1.296,0.157c0.373,0.105,0.709,0.263,1.008,0.473l-0.863,1.93c-0.214-0.148-0.465-0.271-0.753-0.367
			c-0.287-0.097-0.645-0.145-1.071-0.145c-0.939,0-1.744,0.354-2.416,1.059c-0.672,0.706-1.008,1.841-1.008,3.402v6.995h-2.24
			V362.638z"/>
		<path fill="#FFFFFF" d="M88.096,369.998c0.148,1.279,0.64,2.31,1.472,3.088s1.984,1.168,3.456,1.168
			c1.002,0,1.845-0.171,2.528-0.512c0.682-0.342,1.236-0.758,1.664-1.248l1.376,1.344c-0.619,0.683-1.376,1.237-2.272,1.664
			s-1.995,0.64-3.296,0.64c-1.088,0-2.075-0.176-2.96-0.528c-0.886-0.352-1.638-0.837-2.256-1.455c-0.619-0.619-1.1-1.35-1.44-2.192
			c-0.342-0.843-0.512-1.744-0.512-2.704s0.176-1.861,0.528-2.704c0.352-0.843,0.832-1.578,1.439-2.208
			c0.608-0.629,1.333-1.12,2.176-1.472c0.843-0.353,1.744-0.528,2.704-0.528c1.066,0,2.021,0.192,2.864,0.576s1.552,0.917,2.128,1.6
			c0.576,0.684,1.008,1.494,1.296,2.433s0.41,1.952,0.368,3.04H88.096z M97.119,368.302c-0.043-0.576-0.165-1.109-0.368-1.6
			c-0.203-0.491-0.49-0.917-0.863-1.28c-0.374-0.362-0.822-0.65-1.345-0.864c-0.522-0.213-1.136-0.32-1.84-0.32
			c-1.28,0-2.319,0.374-3.12,1.12c-0.8,0.747-1.285,1.729-1.456,2.944H97.119z"/>
		<path fill="#FFFFFF" d="M108.781,376.142c-0.894,0-1.734-0.176-2.521-0.528c-0.787-0.352-1.468-0.831-2.042-1.439
			c-0.575-0.608-1.026-1.333-1.356-2.176s-0.494-1.766-0.494-2.769c0-0.98,0.164-1.893,0.494-2.735s0.781-1.568,1.356-2.177
			c0.574-0.607,1.25-1.088,2.026-1.439c0.776-0.353,1.611-0.528,2.505-0.528c1.276,0,2.319,0.277,3.128,0.832
			c0.808,0.555,1.457,1.28,1.946,2.176v-12.575h2.24v23.104h-2.24l0.063-2.848c-0.446,0.917-1.111,1.664-1.995,2.239
			C111.009,375.854,109.972,376.142,108.781,376.142z M109.231,374.189c0.701,0,1.339-0.123,1.913-0.369
			c0.574-0.245,1.068-0.588,1.483-1.027c0.414-0.438,0.733-0.963,0.956-1.572c0.223-0.61,0.335-1.279,0.335-2.007
			c0-0.706-0.112-1.364-0.335-1.975s-0.542-1.129-0.956-1.557c-0.415-0.429-0.909-0.766-1.483-1.012s-1.212-0.369-1.913-0.369
			c-0.702,0-1.329,0.123-1.882,0.369s-1.031,0.583-1.435,1.012c-0.404,0.428-0.713,0.946-0.925,1.557
			c-0.213,0.61-0.319,1.269-0.319,1.975c0,1.455,0.409,2.648,1.228,3.579C106.717,373.725,107.828,374.189,109.231,374.189z"/>
	</g>
	<g>
		<path fill="#FFFFFF" d="M213.001,347.741c-0.894,0-1.734-0.176-2.521-0.528c-0.787-0.352-1.468-0.831-2.042-1.439
			c-0.575-0.608-1.026-1.333-1.356-2.176s-0.494-1.766-0.494-2.769c0-0.98,0.164-1.893,0.494-2.735s0.781-1.568,1.356-2.177
			c0.574-0.607,1.25-1.088,2.026-1.439c0.776-0.353,1.611-0.528,2.505-0.528c1.276,0,2.319,0.277,3.128,0.832
			c0.808,0.555,1.457,1.28,1.946,2.176v-12.575h2.24v23.104h-2.24l0.063-2.848c-0.446,0.917-1.111,1.664-1.995,2.239
			C215.229,347.453,214.192,347.741,213.001,347.741z M213.452,345.789c0.701,0,1.339-0.123,1.913-0.369
			c0.574-0.245,1.068-0.588,1.483-1.027c0.414-0.438,0.733-0.963,0.956-1.572c0.223-0.61,0.335-1.279,0.335-2.007
			c0-0.706-0.112-1.364-0.335-1.975s-0.542-1.129-0.956-1.557c-0.415-0.429-0.909-0.766-1.483-1.012s-1.212-0.369-1.913-0.369
			c-0.702,0-1.329,0.123-1.882,0.369s-1.031,0.583-1.435,1.012c-0.404,0.428-0.713,0.946-0.925,1.557
			c-0.213,0.61-0.319,1.269-0.319,1.975c0,1.455,0.409,2.648,1.228,3.579C210.937,345.324,212.048,345.789,213.452,345.789z"/>
		<path fill="#FFFFFF" d="M226.235,330.397c-0.427,0-0.8-0.145-1.12-0.432c-0.319-0.288-0.479-0.667-0.479-1.137
			c0-0.469,0.16-0.853,0.479-1.151c0.32-0.299,0.693-0.448,1.12-0.448s0.8,0.149,1.12,0.448s0.48,0.683,0.48,1.151
			c0,0.47-0.16,0.849-0.48,1.137C227.035,330.253,226.662,330.397,226.235,330.397z M225.115,334.237h2.24v13.248h-2.24V334.237z"/>
		<path fill="#FFFFFF" d="M236.603,347.741c-1.473,0-2.678-0.304-3.616-0.912c-0.939-0.607-1.622-1.328-2.048-2.16l1.728-0.991
			c0.384,0.64,0.88,1.173,1.488,1.6c0.607,0.427,1.392,0.64,2.352,0.64c0.896,0,1.589-0.176,2.08-0.527
			c0.49-0.353,0.736-0.837,0.736-1.456c0-0.362-0.075-0.661-0.225-0.896c-0.149-0.234-0.367-0.437-0.655-0.607
			s-0.646-0.325-1.072-0.464s-0.928-0.294-1.504-0.465c-0.512-0.148-1.014-0.319-1.504-0.512c-0.491-0.192-0.918-0.437-1.28-0.736
			c-0.363-0.298-0.656-0.666-0.88-1.104s-0.336-0.965-0.336-1.584c0-1.152,0.421-2.043,1.264-2.672s1.872-0.944,3.088-0.944
			c1.024,0,1.898,0.192,2.624,0.576s1.323,0.907,1.792,1.568l-1.536,1.184c-0.341-0.469-0.746-0.837-1.216-1.104
			c-0.469-0.267-1.023-0.4-1.664-0.4c-0.726,0-1.291,0.155-1.695,0.464c-0.406,0.31-0.608,0.72-0.608,1.232
			c0,0.319,0.053,0.587,0.16,0.8c0.106,0.213,0.282,0.399,0.528,0.56c0.244,0.16,0.57,0.31,0.976,0.448s0.896,0.294,1.472,0.464
			c0.555,0.149,1.099,0.325,1.633,0.528c0.532,0.203,1.002,0.459,1.407,0.768c0.405,0.31,0.73,0.688,0.977,1.137
			c0.245,0.447,0.368,0.991,0.368,1.632c0,1.131-0.39,2.069-1.168,2.815C239.488,347.368,238.267,347.741,236.603,347.741z"/>
		<path fill="#FFFFFF" d="M251.323,347.741c-0.981,0-1.888-0.176-2.72-0.528c-0.832-0.352-1.558-0.837-2.177-1.455
			c-0.618-0.619-1.104-1.35-1.455-2.192c-0.353-0.843-0.528-1.744-0.528-2.704s0.176-1.861,0.528-2.704
			c0.352-0.843,0.837-1.578,1.455-2.208c0.619-0.629,1.345-1.12,2.177-1.472c0.832-0.353,1.738-0.528,2.72-0.528
			c1.194,0,2.208,0.205,3.04,0.614s1.557,0.983,2.176,1.722l-1.6,1.312c-0.405-0.533-0.901-0.949-1.488-1.248
			s-1.296-0.448-2.128-0.448c-0.704,0-1.339,0.123-1.904,0.369s-1.045,0.595-1.439,1.044c-0.396,0.449-0.699,0.974-0.912,1.573
			c-0.214,0.599-0.32,1.252-0.32,1.958s0.106,1.359,0.32,1.958c0.213,0.6,0.517,1.124,0.912,1.573
			c0.395,0.449,0.874,0.798,1.439,1.043c0.565,0.246,1.2,0.369,1.904,0.369c0.917,0,1.675-0.165,2.272-0.496
			c0.597-0.33,1.108-0.74,1.535-1.231l1.536,1.312c-0.619,0.747-1.354,1.328-2.208,1.744S252.56,347.741,251.323,347.741z"/>
		<path fill="#FFFFFF" d="M266.266,347.741c-1.003,0-1.932-0.176-2.784-0.528c-0.854-0.352-1.595-0.837-2.224-1.455
			c-0.63-0.619-1.126-1.35-1.488-2.192c-0.363-0.843-0.544-1.744-0.544-2.704s0.181-1.861,0.544-2.704
			c0.362-0.843,0.858-1.578,1.488-2.208c0.629-0.629,1.37-1.12,2.224-1.472c0.853-0.353,1.781-0.528,2.784-0.528
			c0.98,0,1.898,0.176,2.752,0.528c0.853,0.352,1.589,0.843,2.208,1.472c0.618,0.63,1.108,1.365,1.472,2.208
			c0.362,0.843,0.544,1.744,0.544,2.704s-0.182,1.861-0.544,2.704c-0.363,0.843-0.854,1.573-1.472,2.192
			c-0.619,0.618-1.355,1.104-2.208,1.455C268.165,347.565,267.247,347.741,266.266,347.741z M266.266,345.789
			c0.709,0,1.353-0.122,1.933-0.366s1.079-0.59,1.498-1.037c0.419-0.446,0.741-0.973,0.967-1.579
			c0.226-0.605,0.338-1.26,0.338-1.961c0-0.702-0.112-1.355-0.338-1.962c-0.226-0.605-0.548-1.132-0.967-1.579
			c-0.419-0.446-0.918-0.792-1.498-1.036c-0.58-0.245-1.224-0.367-1.933-0.367s-1.358,0.122-1.949,0.367
			c-0.591,0.244-1.096,0.59-1.514,1.036c-0.419,0.447-0.747,0.974-0.982,1.579c-0.237,0.606-0.354,1.26-0.354,1.962
			c0,0.701,0.117,1.355,0.354,1.961c0.235,0.606,0.563,1.133,0.982,1.579c0.418,0.447,0.923,0.793,1.514,1.037
			S265.557,345.789,266.266,345.789z"/>
		<path fill="#FFFFFF" d="M275.098,334.237h2.464l3.521,7.648c0.106,0.234,0.202,0.479,0.288,0.735
			c0.085,0.256,0.16,0.502,0.224,0.736c0.085,0.256,0.16,0.522,0.224,0.8c0.043-0.277,0.107-0.544,0.192-0.8
			c0.064-0.234,0.139-0.48,0.224-0.736c0.086-0.256,0.182-0.501,0.288-0.735l3.456-7.648h2.305l-6.336,13.504h-0.416
			L275.098,334.237z"/>
		<path fill="#FFFFFF" d="M292.378,341.598c0.148,1.279,0.64,2.31,1.472,3.088s1.984,1.168,3.456,1.168
			c1.002,0,1.845-0.171,2.528-0.512c0.682-0.342,1.236-0.758,1.664-1.248l1.376,1.344c-0.619,0.683-1.376,1.237-2.272,1.664
			s-1.995,0.64-3.296,0.64c-1.088,0-2.075-0.176-2.96-0.528c-0.886-0.352-1.638-0.837-2.256-1.455c-0.619-0.619-1.1-1.35-1.44-2.192
			c-0.342-0.843-0.512-1.744-0.512-2.704s0.176-1.861,0.528-2.704c0.352-0.843,0.832-1.578,1.439-2.208
			c0.608-0.629,1.333-1.12,2.176-1.472c0.843-0.353,1.744-0.528,2.704-0.528c1.066,0,2.021,0.192,2.864,0.576s1.552,0.917,2.128,1.6
			c0.576,0.684,1.008,1.494,1.296,2.433s0.41,1.952,0.368,3.04H292.378z M301.402,339.901c-0.043-0.576-0.165-1.109-0.368-1.6
			c-0.203-0.491-0.49-0.917-0.863-1.28c-0.374-0.362-0.822-0.65-1.345-0.864c-0.522-0.213-1.136-0.32-1.84-0.32
			c-1.28,0-2.319,0.374-3.12,1.12c-0.8,0.747-1.285,1.729-1.456,2.944H301.402z"/>
		<path fill="#FFFFFF" d="M307.482,334.237h2.24l-0.064,2.592c0.427-1.023,0.981-1.754,1.664-2.191s1.419-0.656,2.208-0.656
			c0.49,0,0.923,0.053,1.296,0.157c0.373,0.105,0.709,0.263,1.008,0.473l-0.863,1.93c-0.214-0.148-0.465-0.271-0.753-0.367
			c-0.287-0.097-0.645-0.145-1.071-0.145c-0.939,0-1.744,0.354-2.416,1.059c-0.672,0.706-1.008,1.841-1.008,3.402v6.995h-2.24
			V334.237z"/>
		<path fill="#FFFFFF" d="M323.129,346.365l-5.632-12.128h2.464l3.744,8.224c0.085,0.214,0.171,0.448,0.256,0.704
			s0.149,0.502,0.192,0.736c0.063,0.256,0.117,0.523,0.16,0.8c0.042-0.276,0.096-0.544,0.16-0.8c0.042-0.234,0.101-0.48,0.176-0.736
			c0.074-0.256,0.165-0.49,0.271-0.704l3.456-8.224h2.305l-8.641,20.032h-2.304L323.129,346.365z"/>
		<path fill="#FFFFFF" d="M209.259,366.638h2.24l-0.064,2.592c0.427-1.023,0.981-1.754,1.664-2.191s1.419-0.656,2.208-0.656
			c0.49,0,0.923,0.053,1.296,0.157c0.373,0.105,0.709,0.263,1.008,0.473l-0.863,1.93c-0.214-0.148-0.465-0.271-0.753-0.367
			c-0.287-0.097-0.645-0.145-1.071-0.145c-0.939,0-1.744,0.354-2.416,1.059c-0.672,0.706-1.008,1.841-1.008,3.402v6.995h-2.24
			V366.638z"/>
		<path fill="#FFFFFF" d="M226.571,380.142c-1.003,0-1.932-0.176-2.784-0.528c-0.854-0.352-1.595-0.837-2.224-1.455
			c-0.63-0.619-1.126-1.35-1.488-2.192c-0.363-0.843-0.544-1.744-0.544-2.704s0.181-1.861,0.544-2.704
			c0.362-0.843,0.858-1.578,1.488-2.208c0.629-0.629,1.37-1.12,2.224-1.472c0.853-0.353,1.781-0.528,2.784-0.528
			c0.98,0,1.898,0.176,2.752,0.528c0.853,0.352,1.589,0.843,2.208,1.472c0.618,0.63,1.108,1.365,1.472,2.208
			c0.362,0.843,0.544,1.744,0.544,2.704s-0.182,1.861-0.544,2.704c-0.363,0.843-0.854,1.573-1.472,2.192
			c-0.619,0.618-1.355,1.104-2.208,1.455C228.469,379.966,227.551,380.142,226.571,380.142z M226.571,378.189
			c0.709,0,1.353-0.122,1.933-0.366s1.079-0.59,1.498-1.037c0.419-0.446,0.741-0.973,0.967-1.579
			c0.226-0.605,0.338-1.26,0.338-1.961c0-0.702-0.112-1.355-0.338-1.962c-0.226-0.605-0.548-1.132-0.967-1.579
			c-0.419-0.446-0.918-0.792-1.498-1.036c-0.58-0.245-1.224-0.367-1.933-0.367s-1.358,0.122-1.949,0.367
			c-0.591,0.244-1.096,0.59-1.514,1.036c-0.419,0.447-0.747,0.974-0.982,1.579c-0.237,0.606-0.354,1.26-0.354,1.962
			c0,0.701,0.117,1.355,0.354,1.961c0.235,0.606,0.563,1.133,0.982,1.579c0.418,0.447,0.923,0.793,1.514,1.037
			S225.862,378.189,226.571,378.189z"/>
		<path fill="#FFFFFF" d="M242.955,380.142c-0.896,0-1.729-0.176-2.496-0.528c-0.768-0.352-1.435-0.831-2-1.439
			s-1.014-1.333-1.344-2.176c-0.331-0.843-0.496-1.766-0.496-2.769c0-0.98,0.16-1.893,0.479-2.735
			c0.32-0.843,0.769-1.568,1.345-2.177c0.575-0.607,1.253-1.088,2.031-1.439c0.779-0.353,1.616-0.528,2.513-0.528
			c1.236,0,2.271,0.288,3.104,0.864s1.482,1.333,1.952,2.271l-0.063-2.848h2.239v13.248h-2.239l0.063-2.848
			c-0.448,0.896-1.104,1.637-1.968,2.224S244.17,380.142,242.955,380.142z M243.434,378.189c0.704,0,1.339-0.123,1.904-0.369
			c0.565-0.245,1.045-0.588,1.44-1.027c0.395-0.438,0.704-0.963,0.928-1.572c0.224-0.61,0.336-1.269,0.336-1.975
			s-0.112-1.359-0.336-1.958c-0.224-0.6-0.533-1.124-0.928-1.573c-0.396-0.449-0.875-0.798-1.44-1.044s-1.2-0.369-1.904-0.369
			c-1.407,0-2.507,0.461-3.296,1.381s-1.184,2.097-1.184,3.531c0,1.455,0.395,2.648,1.184,3.579
			C240.927,377.725,242.027,378.189,243.434,378.189z"/>
		<path fill="#FFFFFF" d="M260.569,380.142c-0.894,0-1.734-0.176-2.521-0.528c-0.787-0.352-1.468-0.831-2.042-1.439
			c-0.575-0.608-1.026-1.333-1.356-2.176s-0.494-1.766-0.494-2.769c0-0.98,0.164-1.893,0.494-2.735s0.781-1.568,1.356-2.177
			c0.574-0.607,1.25-1.088,2.026-1.439c0.776-0.353,1.611-0.528,2.505-0.528c1.276,0,2.319,0.277,3.128,0.832
			c0.808,0.555,1.457,1.28,1.946,2.176v-12.575h2.24v23.104h-2.24l0.063-2.848c-0.446,0.917-1.111,1.664-1.995,2.239
			C262.796,379.854,261.759,380.142,260.569,380.142z M261.019,378.189c0.701,0,1.339-0.123,1.913-0.369
			c0.574-0.245,1.068-0.588,1.483-1.027c0.414-0.438,0.733-0.963,0.956-1.572c0.223-0.61,0.335-1.279,0.335-2.007
			c0-0.706-0.112-1.364-0.335-1.975s-0.542-1.129-0.956-1.557c-0.415-0.429-0.909-0.766-1.483-1.012s-1.212-0.369-1.913-0.369
			c-0.702,0-1.329,0.123-1.882,0.369s-1.031,0.583-1.435,1.012c-0.404,0.428-0.713,0.946-0.925,1.557
			c-0.213,0.61-0.319,1.269-0.319,1.975c0,1.455,0.409,2.648,1.228,3.579C258.504,377.725,259.616,378.189,261.019,378.189z"/>
		<path fill="#FFFFFF" d="M272.619,366.638h2.24l-0.064,2.496c0.427-0.896,0.992-1.584,1.696-2.064
			c0.704-0.479,1.524-0.72,2.464-0.72c1.045,0,1.898,0.256,2.56,0.769c0.661,0.512,1.142,1.184,1.44,2.016
			c0.492-0.896,1.14-1.584,1.942-2.064c0.803-0.479,1.686-0.72,2.649-0.72c1.478,0,2.633,0.448,3.468,1.344
			c0.835,0.896,1.252,2.134,1.252,3.712v8.48h-2.239v-8.192c0-1.066-0.225-1.882-0.673-2.447c-0.447-0.565-1.194-0.849-2.239-0.849
			c-1.067,0-1.926,0.348-2.576,1.04c-0.651,0.693-0.977,1.702-0.977,3.024v7.424h-2.239v-8.192c0-1.066-0.225-1.882-0.672-2.447
			c-0.448-0.565-1.185-0.849-2.208-0.849c-1.067,0-1.932,0.348-2.593,1.04c-0.661,0.693-0.991,1.702-0.991,3.024v7.424h-2.24
			V366.638z"/>
		<path fill="#FFFFFF" d="M302.346,380.142c-0.896,0-1.729-0.176-2.496-0.528c-0.768-0.352-1.435-0.831-2-1.439
			s-1.014-1.333-1.344-2.176c-0.331-0.843-0.496-1.766-0.496-2.769c0-0.98,0.16-1.893,0.479-2.735
			c0.32-0.843,0.769-1.568,1.345-2.177c0.575-0.607,1.253-1.088,2.031-1.439c0.779-0.353,1.616-0.528,2.513-0.528
			c1.236,0,2.271,0.288,3.104,0.864s1.482,1.333,1.952,2.271l-0.063-2.848h2.239v13.248h-2.239l0.063-2.848
			c-0.448,0.896-1.104,1.637-1.968,2.224S303.562,380.142,302.346,380.142z M302.826,378.189c0.704,0,1.339-0.123,1.904-0.369
			c0.565-0.245,1.045-0.588,1.44-1.027c0.395-0.438,0.704-0.963,0.928-1.572c0.224-0.61,0.336-1.269,0.336-1.975
			s-0.112-1.359-0.336-1.958c-0.224-0.6-0.533-1.124-0.928-1.573c-0.396-0.449-0.875-0.798-1.44-1.044s-1.2-0.369-1.904-0.369
			c-1.407,0-2.507,0.461-3.296,1.381s-1.184,2.097-1.184,3.531c0,1.455,0.395,2.648,1.184,3.579
			C300.319,377.725,301.418,378.189,302.826,378.189z"/>
		<path fill="#FFFFFF" d="M314.411,366.638h2.239l-0.063,2.848c0.468-0.917,1.127-1.669,1.979-2.256
			c0.851-0.586,1.904-0.88,3.159-0.88c0.894,0,1.729,0.176,2.505,0.528c0.776,0.352,1.452,0.832,2.026,1.439
			c0.574,0.608,1.026,1.334,1.356,2.177c0.329,0.843,0.494,1.755,0.494,2.735c0,1.003-0.165,1.926-0.494,2.769
			c-0.33,0.843-0.782,1.567-1.356,2.176s-1.256,1.088-2.043,1.439c-0.787,0.353-1.627,0.528-2.521,0.528
			c-1.191,0-2.223-0.282-3.095-0.848c-0.873-0.565-1.521-1.285-1.947-2.16v9.536h-2.239V366.638z M321.243,378.189
			c1.402,0,2.513-0.465,3.332-1.396c0.818-0.931,1.228-2.124,1.228-3.579c0-0.706-0.106-1.364-0.319-1.975s-0.521-1.129-0.925-1.557
			c-0.404-0.429-0.882-0.766-1.435-1.012c-0.554-0.246-1.181-0.369-1.881-0.369c-0.702,0-1.34,0.123-1.914,0.369
			s-1.068,0.583-1.482,1.012c-0.415,0.428-0.734,0.946-0.957,1.557c-0.224,0.61-0.335,1.269-0.335,1.975
			c0,0.728,0.111,1.396,0.335,2.007c0.223,0.609,0.542,1.134,0.957,1.572c0.414,0.439,0.908,0.782,1.482,1.027
			C319.903,378.066,320.541,378.189,321.243,378.189z"/>
	</g>
	<g>
		<path fill="#FFFFFF" d="M452.139,347.741c-0.894,0-1.734-0.176-2.521-0.528c-0.787-0.352-1.468-0.831-2.042-1.439
			c-0.575-0.608-1.026-1.333-1.356-2.176s-0.494-1.766-0.494-2.769c0-0.98,0.164-1.893,0.494-2.735s0.781-1.568,1.356-2.177
			c0.574-0.607,1.25-1.088,2.026-1.439c0.776-0.353,1.611-0.528,2.505-0.528c1.276,0,2.319,0.277,3.128,0.832
			c0.808,0.555,1.457,1.28,1.946,2.176v-12.575h2.24v23.104h-2.24l0.063-2.848c-0.446,0.917-1.111,1.664-1.995,2.239
			C454.367,347.453,453.33,347.741,452.139,347.741z M452.589,345.789c0.701,0,1.339-0.123,1.913-0.369
			c0.574-0.245,1.068-0.588,1.483-1.027c0.414-0.438,0.733-0.963,0.956-1.572c0.223-0.61,0.335-1.279,0.335-2.007
			c0-0.706-0.112-1.364-0.335-1.975s-0.542-1.129-0.956-1.557c-0.415-0.429-0.909-0.766-1.483-1.012s-1.212-0.369-1.913-0.369
			c-0.702,0-1.329,0.123-1.882,0.369s-1.031,0.583-1.435,1.012c-0.404,0.428-0.713,0.946-0.925,1.557
			c-0.213,0.61-0.319,1.269-0.319,1.975c0,1.455,0.409,2.648,1.228,3.579C450.075,345.324,451.186,345.789,452.589,345.789z"/>
		<path fill="#FFFFFF" d="M465.597,341.598c0.148,1.279,0.64,2.31,1.472,3.088s1.984,1.168,3.456,1.168
			c1.002,0,1.845-0.171,2.528-0.512c0.682-0.342,1.236-0.758,1.664-1.248l1.376,1.344c-0.619,0.683-1.376,1.237-2.272,1.664
			s-1.995,0.64-3.296,0.64c-1.088,0-2.075-0.176-2.96-0.528c-0.886-0.352-1.638-0.837-2.256-1.455c-0.619-0.619-1.1-1.35-1.44-2.192
			c-0.342-0.843-0.512-1.744-0.512-2.704s0.176-1.861,0.528-2.704c0.352-0.843,0.832-1.578,1.439-2.208
			c0.608-0.629,1.333-1.12,2.176-1.472c0.843-0.353,1.744-0.528,2.704-0.528c1.066,0,2.021,0.192,2.864,0.576s1.552,0.917,2.128,1.6
			c0.576,0.684,1.008,1.494,1.296,2.433s0.41,1.952,0.368,3.04H465.597z M474.621,339.901c-0.043-0.576-0.165-1.109-0.368-1.6
			c-0.203-0.491-0.49-0.917-0.863-1.28c-0.374-0.362-0.822-0.65-1.345-0.864c-0.522-0.213-1.136-0.32-1.84-0.32
			c-1.28,0-2.319,0.374-3.12,1.12c-0.8,0.747-1.285,1.729-1.456,2.944H474.621z"/>
		<path fill="#FFFFFF" d="M486.749,347.741c-0.981,0-1.888-0.176-2.72-0.528c-0.832-0.352-1.558-0.837-2.177-1.455
			c-0.618-0.619-1.104-1.35-1.455-2.192c-0.353-0.843-0.528-1.744-0.528-2.704s0.176-1.861,0.528-2.704
			c0.352-0.843,0.837-1.578,1.455-2.208c0.619-0.629,1.345-1.12,2.177-1.472c0.832-0.353,1.738-0.528,2.72-0.528
			c1.194,0,2.208,0.205,3.04,0.614s1.557,0.983,2.176,1.722l-1.6,1.312c-0.405-0.533-0.901-0.949-1.488-1.248
			s-1.296-0.448-2.128-0.448c-0.704,0-1.339,0.123-1.904,0.369s-1.045,0.595-1.439,1.044c-0.396,0.449-0.699,0.974-0.912,1.573
			c-0.214,0.599-0.32,1.252-0.32,1.958s0.106,1.359,0.32,1.958c0.213,0.6,0.517,1.124,0.912,1.573
			c0.395,0.449,0.874,0.798,1.439,1.043c0.565,0.246,1.2,0.369,1.904,0.369c0.917,0,1.675-0.165,2.272-0.496
			c0.597-0.33,1.108-0.74,1.535-1.231l1.536,1.312c-0.619,0.747-1.354,1.328-2.208,1.744S487.986,347.741,486.749,347.741z"/>
		<path fill="#FFFFFF" d="M499.708,346.365l-5.632-12.128h2.464l3.744,8.224c0.085,0.214,0.171,0.448,0.256,0.704
			s0.149,0.502,0.192,0.736c0.063,0.256,0.117,0.523,0.16,0.8c0.042-0.276,0.096-0.544,0.16-0.8c0.042-0.234,0.101-0.48,0.176-0.736
			c0.074-0.256,0.165-0.49,0.271-0.704l3.456-8.224h2.305l-8.641,20.032h-2.304L499.708,346.365z"/>
		<path fill="#FFFFFF" d="M510.46,334.237h2.239l-0.063,2.848c0.468-0.917,1.127-1.669,1.979-2.256
			c0.851-0.586,1.904-0.88,3.159-0.88c0.894,0,1.729,0.176,2.505,0.528c0.776,0.352,1.452,0.832,2.026,1.439
			c0.574,0.608,1.026,1.334,1.356,2.177c0.329,0.843,0.494,1.755,0.494,2.735c0,1.003-0.165,1.926-0.494,2.769
			c-0.33,0.843-0.782,1.567-1.356,2.176s-1.256,1.088-2.043,1.439c-0.787,0.353-1.627,0.528-2.521,0.528
			c-1.191,0-2.223-0.282-3.095-0.848c-0.873-0.565-1.521-1.285-1.947-2.16v9.536h-2.239V334.237z M517.292,345.789
			c1.402,0,2.513-0.465,3.332-1.396c0.818-0.931,1.228-2.124,1.228-3.579c0-0.706-0.106-1.364-0.319-1.975s-0.521-1.129-0.925-1.557
			c-0.404-0.429-0.882-0.766-1.435-1.012c-0.554-0.246-1.181-0.369-1.881-0.369c-0.702,0-1.34,0.123-1.914,0.369
			s-1.068,0.583-1.482,1.012c-0.415,0.428-0.734,0.946-0.957,1.557c-0.224,0.61-0.335,1.269-0.335,1.975
			c0,0.728,0.111,1.396,0.335,2.007c0.223,0.609,0.542,1.134,0.957,1.572c0.414,0.439,0.908,0.782,1.482,1.027
			C515.953,345.666,516.59,345.789,517.292,345.789z"/>
		<path fill="#FFFFFF" d="M528.06,324.382h2.24v12.447c0.426-0.896,1.045-1.6,1.855-2.111c0.811-0.513,1.76-0.769,2.848-0.769
			c1.473,0,2.667,0.48,3.585,1.44c0.917,0.96,1.376,2.304,1.376,4.031v8.064h-2.24v-7.808c0-1.174-0.272-2.08-0.816-2.721
			c-0.544-0.64-1.371-0.96-2.479-0.96c-1.238,0-2.235,0.368-2.992,1.104c-0.758,0.735-1.136,1.766-1.136,3.088v7.296h-2.24V324.382z
			"/>
		<path fill="#FFFFFF" d="M545.98,341.598c0.148,1.279,0.64,2.31,1.472,3.088s1.984,1.168,3.456,1.168
			c1.002,0,1.845-0.171,2.528-0.512c0.682-0.342,1.236-0.758,1.664-1.248l1.376,1.344c-0.619,0.683-1.376,1.237-2.272,1.664
			s-1.995,0.64-3.296,0.64c-1.088,0-2.075-0.176-2.96-0.528c-0.886-0.352-1.638-0.837-2.256-1.455c-0.619-0.619-1.1-1.35-1.44-2.192
			c-0.342-0.843-0.512-1.744-0.512-2.704s0.176-1.861,0.528-2.704c0.352-0.843,0.832-1.578,1.439-2.208
			c0.608-0.629,1.333-1.12,2.176-1.472c0.843-0.353,1.744-0.528,2.704-0.528c1.066,0,2.021,0.192,2.864,0.576s1.552,0.917,2.128,1.6
			c0.576,0.684,1.008,1.494,1.296,2.433s0.41,1.952,0.368,3.04H545.98z M555.003,339.901c-0.043-0.576-0.165-1.109-0.368-1.6
			c-0.203-0.491-0.49-0.917-0.863-1.28c-0.374-0.362-0.822-0.65-1.345-0.864c-0.522-0.213-1.136-0.32-1.84-0.32
			c-1.28,0-2.319,0.374-3.12,1.12c-0.8,0.747-1.285,1.729-1.456,2.944H555.003z"/>
		<path fill="#FFFFFF" d="M561.083,334.237h2.24l-0.064,2.592c0.427-1.023,0.981-1.754,1.664-2.191s1.419-0.656,2.208-0.656
			c0.49,0,0.923,0.053,1.296,0.157c0.373,0.105,0.709,0.263,1.008,0.473l-0.863,1.93c-0.214-0.148-0.465-0.271-0.753-0.367
			c-0.287-0.097-0.645-0.145-1.071-0.145c-0.939,0-1.744,0.354-2.416,1.059c-0.672,0.706-1.008,1.841-1.008,3.402v6.995h-2.24
			V334.237z"/>
		<path fill="#FFFFFF" d="M447.757,368.525h-2.145v-1.888h2.145v-6.016c0-1.493,0.341-2.576,1.023-3.248s1.568-1.008,2.656-1.008
			c0.811,0,1.488,0.151,2.032,0.454c0.544,0.304,0.986,0.705,1.328,1.203l-1.473,1.318c-0.213-0.277-0.438-0.501-0.672-0.672
			c-0.235-0.171-0.576-0.256-1.024-0.256c-0.49,0-0.885,0.159-1.184,0.479c-0.299,0.318-0.448,0.902-0.448,1.753v5.992h3.553v1.888
			h-3.553v11.36h-2.239V368.525z"/>
		<path fill="#FFFFFF" d="M457.997,373.998c0.148,1.279,0.64,2.31,1.472,3.088s1.984,1.168,3.456,1.168
			c1.002,0,1.845-0.171,2.528-0.512c0.682-0.342,1.236-0.758,1.664-1.248l1.376,1.344c-0.619,0.683-1.376,1.237-2.272,1.664
			s-1.995,0.64-3.296,0.64c-1.088,0-2.075-0.176-2.96-0.528c-0.886-0.352-1.638-0.837-2.256-1.455c-0.619-0.619-1.1-1.35-1.44-2.192
			c-0.342-0.843-0.512-1.744-0.512-2.704s0.176-1.861,0.528-2.704c0.352-0.843,0.832-1.578,1.439-2.208
			c0.608-0.629,1.333-1.12,2.176-1.472c0.843-0.353,1.744-0.528,2.704-0.528c1.066,0,2.021,0.192,2.864,0.576s1.552,0.917,2.128,1.6
			c0.576,0.684,1.008,1.494,1.296,2.433s0.41,1.952,0.368,3.04H457.997z M467.02,372.302c-0.043-0.576-0.165-1.109-0.368-1.6
			c-0.203-0.491-0.49-0.917-0.863-1.28c-0.374-0.362-0.822-0.65-1.345-0.864c-0.522-0.213-1.136-0.32-1.84-0.32
			c-1.28,0-2.319,0.374-3.12,1.12c-0.8,0.747-1.285,1.729-1.456,2.944H467.02z"/>
		<path fill="#FFFFFF" d="M474.508,373.998c0.148,1.279,0.64,2.31,1.472,3.088s1.984,1.168,3.456,1.168
			c1.002,0,1.845-0.171,2.528-0.512c0.682-0.342,1.236-0.758,1.664-1.248l1.376,1.344c-0.619,0.683-1.376,1.237-2.272,1.664
			s-1.995,0.64-3.296,0.64c-1.088,0-2.075-0.176-2.96-0.528c-0.886-0.352-1.638-0.837-2.256-1.455c-0.619-0.619-1.1-1.35-1.44-2.192
			c-0.342-0.843-0.512-1.744-0.512-2.704s0.176-1.861,0.528-2.704c0.352-0.843,0.832-1.578,1.439-2.208
			c0.608-0.629,1.333-1.12,2.176-1.472c0.843-0.353,1.744-0.528,2.704-0.528c1.066,0,2.021,0.192,2.864,0.576s1.552,0.917,2.128,1.6
			c0.576,0.684,1.008,1.494,1.296,2.433s0.41,1.952,0.368,3.04H474.508z M483.532,372.302c-0.043-0.576-0.165-1.109-0.368-1.6
			c-0.203-0.491-0.49-0.917-0.863-1.28c-0.374-0.362-0.822-0.65-1.345-0.864c-0.522-0.213-1.136-0.32-1.84-0.32
			c-1.28,0-2.319,0.374-3.12,1.12c-0.8,0.747-1.285,1.729-1.456,2.944H483.532z"/>
		<path fill="#FFFFFF" d="M495.194,380.142c-0.894,0-1.734-0.176-2.521-0.528c-0.787-0.352-1.468-0.831-2.042-1.439
			c-0.575-0.608-1.026-1.333-1.356-2.176s-0.494-1.766-0.494-2.769c0-0.98,0.164-1.893,0.494-2.735s0.781-1.568,1.356-2.177
			c0.574-0.607,1.25-1.088,2.026-1.439c0.776-0.353,1.611-0.528,2.505-0.528c1.276,0,2.319,0.277,3.128,0.832
			c0.808,0.555,1.457,1.28,1.946,2.176v-12.575h2.24v23.104h-2.24l0.063-2.848c-0.446,0.917-1.111,1.664-1.995,2.239
			C497.421,379.854,496.384,380.142,495.194,380.142z M495.644,378.189c0.701,0,1.339-0.123,1.913-0.369
			c0.574-0.245,1.068-0.588,1.483-1.027c0.414-0.438,0.733-0.963,0.956-1.572c0.223-0.61,0.335-1.279,0.335-2.007
			c0-0.706-0.112-1.364-0.335-1.975s-0.542-1.129-0.956-1.557c-0.415-0.429-0.909-0.766-1.483-1.012s-1.212-0.369-1.913-0.369
			c-0.702,0-1.329,0.123-1.882,0.369s-1.031,0.583-1.435,1.012c-0.404,0.428-0.713,0.946-0.925,1.557
			c-0.213,0.61-0.319,1.269-0.319,1.975c0,1.455,0.409,2.648,1.228,3.579C493.129,377.725,494.241,378.189,495.644,378.189z"/>
		<path fill="#FFFFFF" d="M514.558,380.142c-1.191,0-2.229-0.288-3.111-0.864c-0.883-0.575-1.547-1.322-1.994-2.239l0.063,2.848
			h-2.239v-23.104h2.239l-0.031,12.575c0.49-0.896,1.151-1.621,1.983-2.176s1.867-0.832,3.104-0.832
			c0.896,0,1.732,0.176,2.512,0.528c0.778,0.352,1.456,0.832,2.032,1.439c0.576,0.608,1.028,1.334,1.359,2.177
			s0.496,1.755,0.496,2.735c0,1.003-0.165,1.926-0.494,2.769c-0.33,0.843-0.782,1.567-1.356,2.176s-1.256,1.088-2.043,1.439
			C516.292,379.966,515.452,380.142,514.558,380.142z M514.109,378.189c1.402,0,2.513-0.465,3.332-1.396
			c0.818-0.931,1.228-2.124,1.228-3.579c0-0.706-0.106-1.364-0.319-1.975s-0.521-1.129-0.925-1.557
			c-0.404-0.429-0.882-0.766-1.435-1.012c-0.554-0.246-1.181-0.369-1.881-0.369c-0.702,0-1.34,0.123-1.914,0.369
			s-1.068,0.583-1.482,1.012c-0.415,0.428-0.734,0.946-0.957,1.557c-0.224,0.61-0.335,1.269-0.335,1.975
			c0,0.728,0.111,1.396,0.335,2.007c0.223,0.609,0.542,1.134,0.957,1.572c0.414,0.439,0.908,0.782,1.482,1.027
			C512.769,378.066,513.407,378.189,514.109,378.189z"/>
		<path fill="#FFFFFF" d="M530.379,380.142c-0.896,0-1.729-0.176-2.496-0.528c-0.768-0.352-1.435-0.831-2-1.439
			s-1.014-1.333-1.344-2.176c-0.331-0.843-0.496-1.766-0.496-2.769c0-0.98,0.16-1.893,0.479-2.735
			c0.32-0.843,0.769-1.568,1.345-2.177c0.575-0.607,1.253-1.088,2.031-1.439c0.779-0.353,1.616-0.528,2.513-0.528
			c1.236,0,2.271,0.288,3.104,0.864s1.482,1.333,1.952,2.271l-0.063-2.848h2.239v13.248h-2.239l0.063-2.848
			c-0.448,0.896-1.104,1.637-1.968,2.224S531.595,380.142,530.379,380.142z M530.859,378.189c0.704,0,1.339-0.123,1.904-0.369
			c0.565-0.245,1.045-0.588,1.44-1.027c0.395-0.438,0.704-0.963,0.928-1.572c0.224-0.61,0.336-1.269,0.336-1.975
			s-0.112-1.359-0.336-1.958c-0.224-0.6-0.533-1.124-0.928-1.573c-0.396-0.449-0.875-0.798-1.44-1.044s-1.2-0.369-1.904-0.369
			c-1.407,0-2.507,0.461-3.296,1.381s-1.184,2.097-1.184,3.531c0,1.455,0.395,2.648,1.184,3.579
			C528.352,377.725,529.452,378.189,530.859,378.189z"/>
		<path fill="#FFFFFF" d="M548.459,380.142c-0.981,0-1.888-0.176-2.72-0.528c-0.832-0.352-1.558-0.837-2.177-1.455
			c-0.618-0.619-1.104-1.35-1.455-2.192c-0.353-0.843-0.528-1.744-0.528-2.704s0.176-1.861,0.528-2.704
			c0.352-0.843,0.837-1.578,1.455-2.208c0.619-0.629,1.345-1.12,2.177-1.472c0.832-0.353,1.738-0.528,2.72-0.528
			c1.194,0,2.208,0.205,3.04,0.614s1.557,0.983,2.176,1.722l-1.6,1.312c-0.405-0.533-0.901-0.949-1.488-1.248
			s-1.296-0.448-2.128-0.448c-0.704,0-1.339,0.123-1.904,0.369s-1.045,0.595-1.439,1.044c-0.396,0.449-0.699,0.974-0.912,1.573
			c-0.214,0.599-0.32,1.252-0.32,1.958s0.106,1.359,0.32,1.958c0.213,0.6,0.517,1.124,0.912,1.573
			c0.395,0.449,0.874,0.798,1.439,1.043c0.565,0.246,1.2,0.369,1.904,0.369c0.917,0,1.675-0.165,2.272-0.496
			c0.597-0.33,1.108-0.74,1.535-1.231l1.536,1.312c-0.619,0.747-1.354,1.328-2.208,1.744S549.697,380.142,548.459,380.142z"/>
		<path fill="#FFFFFF" d="M559.596,379.886h-2.24v-23.104h2.24v14.815c0,0.661-0.054,1.291-0.16,1.888l6.304-6.848h2.592
			l-5.088,5.568l5.888,7.68h-2.655l-4.8-6.208l-2.08,2.176V379.886z"/>
	</g>
	<g>
		<path fill="#FFFFFF" d="M1072.365,347.741c-1.473,0-2.678-0.304-3.617-0.912c-0.939-0.607-1.621-1.328-2.047-2.16l1.727-0.991
			c0.385,0.64,0.881,1.173,1.488,1.6s1.393,0.64,2.352,0.64c0.896,0,1.59-0.176,2.08-0.527c0.49-0.353,0.736-0.837,0.736-1.456
			c0-0.362-0.074-0.661-0.225-0.896c-0.148-0.234-0.367-0.437-0.654-0.607c-0.289-0.171-0.646-0.325-1.072-0.464
			c-0.428-0.139-0.928-0.294-1.504-0.465c-0.512-0.148-1.014-0.319-1.504-0.512c-0.492-0.192-0.918-0.437-1.281-0.736
			c-0.363-0.298-0.656-0.666-0.879-1.104c-0.225-0.438-0.336-0.965-0.336-1.584c0-1.152,0.42-2.043,1.264-2.672
			c0.842-0.629,1.871-0.944,3.088-0.944c1.023,0,1.898,0.192,2.623,0.576c0.727,0.384,1.324,0.907,1.793,1.568l-1.537,1.184
			c-0.34-0.469-0.746-0.837-1.215-1.104s-1.023-0.4-1.664-0.4c-0.727,0-1.291,0.155-1.695,0.464c-0.406,0.31-0.609,0.72-0.609,1.232
			c0,0.319,0.053,0.587,0.16,0.8s0.283,0.399,0.529,0.56c0.244,0.16,0.57,0.31,0.975,0.448c0.406,0.139,0.896,0.294,1.473,0.464
			c0.555,0.149,1.098,0.325,1.633,0.528c0.531,0.203,1.002,0.459,1.406,0.768c0.406,0.31,0.73,0.688,0.977,1.137
			c0.246,0.447,0.369,0.991,0.369,1.632c0,1.131-0.391,2.069-1.168,2.815C1075.25,347.368,1074.029,347.741,1072.365,347.741z"/>
		<path fill="#FFFFFF" d="M1085.068,347.773c-0.512,0-0.982-0.075-1.414-0.224c-0.43-0.149-0.807-0.395-1.131-0.736
			c-0.326-0.341-0.58-0.784-0.764-1.328s-0.275-1.211-0.275-2v-7.36h-2.049v-1.888h2.049v-6.912h2.24v6.912h3.711v1.888h-3.711
			v7.393c0,0.896,0.139,1.504,0.416,1.824c0.277,0.319,0.66,0.479,1.152,0.479c0.447,0,0.805-0.08,1.07-0.24
			c0.268-0.16,0.508-0.336,0.721-0.527l1.217,1.407c-0.299,0.3-0.711,0.593-1.232,0.881
			C1086.545,347.629,1085.879,347.773,1085.068,347.773z"/>
		<path fill="#FFFFFF" d="M1091.469,334.237h2.24l-0.064,2.592c0.426-1.023,0.98-1.754,1.664-2.191
			c0.682-0.438,1.418-0.656,2.207-0.656c0.49,0,0.924,0.053,1.297,0.157c0.373,0.105,0.709,0.263,1.008,0.473l-0.863,1.93
			c-0.215-0.148-0.465-0.271-0.754-0.367c-0.287-0.097-0.645-0.145-1.07-0.145c-0.939,0-1.744,0.354-2.416,1.059
			c-0.672,0.706-1.008,1.841-1.008,3.402v6.995h-2.24V334.237z"/>
		<path fill="#FFFFFF" d="M1108.076,347.741c-0.896,0-1.729-0.176-2.496-0.528c-0.768-0.352-1.434-0.831-2-1.439
			c-0.564-0.608-1.014-1.333-1.344-2.176s-0.496-1.766-0.496-2.769c0-0.98,0.16-1.893,0.48-2.735s0.768-1.568,1.344-2.177
			c0.576-0.607,1.254-1.088,2.031-1.439c0.779-0.353,1.617-0.528,2.514-0.528c1.236,0,2.271,0.288,3.104,0.864
			s1.482,1.333,1.951,2.271l-0.062-2.848h2.238v13.248h-2.238l0.062-2.848c-0.447,0.896-1.104,1.637-1.967,2.224
			C1110.332,347.448,1109.293,347.741,1108.076,347.741z M1108.557,345.789c0.703,0,1.338-0.123,1.904-0.369
			c0.564-0.245,1.045-0.588,1.439-1.027c0.395-0.438,0.705-0.963,0.928-1.572c0.225-0.61,0.336-1.269,0.336-1.975
			s-0.111-1.359-0.336-1.958c-0.223-0.6-0.533-1.124-0.928-1.573s-0.875-0.798-1.439-1.044c-0.566-0.246-1.201-0.369-1.904-0.369
			c-1.408,0-2.508,0.461-3.297,1.381s-1.184,2.097-1.184,3.531c0,1.455,0.395,2.648,1.184,3.579
			C1106.049,345.324,1107.148,345.789,1108.557,345.789z"/>
		<path fill="#FFFFFF" d="M1124.459,347.773c-0.512,0-0.982-0.075-1.412-0.224c-0.43-0.149-0.809-0.395-1.133-0.736
			c-0.324-0.341-0.578-0.784-0.762-1.328c-0.186-0.544-0.277-1.211-0.277-2v-7.36h-2.047v-1.888h2.047v-6.912h2.24v6.912h3.713
			v1.888h-3.713v7.393c0,0.896,0.139,1.504,0.416,1.824c0.277,0.319,0.662,0.479,1.152,0.479c0.447,0,0.805-0.08,1.072-0.24
			c0.266-0.16,0.506-0.336,0.721-0.527l1.215,1.407c-0.299,0.3-0.709,0.593-1.232,0.881
			C1125.938,347.629,1125.27,347.773,1124.459,347.773z"/>
		<path fill="#FFFFFF" d="M1132.107,341.598c0.148,1.279,0.641,2.31,1.473,3.088s1.984,1.168,3.455,1.168
			c1.002,0,1.846-0.171,2.529-0.512c0.682-0.342,1.236-0.758,1.664-1.248l1.375,1.344c-0.619,0.683-1.375,1.237-2.271,1.664
			s-1.996,0.64-3.297,0.64c-1.088,0-2.074-0.176-2.959-0.528c-0.887-0.352-1.639-0.837-2.256-1.455
			c-0.619-0.619-1.1-1.35-1.441-2.192s-0.512-1.744-0.512-2.704s0.176-1.861,0.529-2.704c0.352-0.843,0.832-1.578,1.439-2.208
			c0.607-0.629,1.332-1.12,2.176-1.472c0.842-0.353,1.744-0.528,2.703-0.528c1.066,0,2.021,0.192,2.865,0.576
			c0.842,0.384,1.551,0.917,2.127,1.6c0.576,0.684,1.008,1.494,1.297,2.433c0.287,0.938,0.41,1.952,0.367,3.04H1132.107z
			 M1141.131,339.901c-0.043-0.576-0.164-1.109-0.367-1.6c-0.203-0.491-0.49-0.917-0.863-1.28c-0.375-0.362-0.822-0.65-1.346-0.864
			c-0.521-0.213-1.135-0.32-1.84-0.32c-1.279,0-2.318,0.374-3.119,1.12c-0.801,0.747-1.285,1.729-1.457,2.944H1141.131z"/>
		<path fill="#FFFFFF" d="M1153.42,354.621c-1.645,0-3.02-0.347-4.129-1.04s-1.973-1.584-2.592-2.672l1.664-1.151
			c0.555,0.938,1.232,1.658,2.031,2.159c0.801,0.501,1.787,0.752,2.961,0.752c1.43,0,2.539-0.387,3.328-1.16
			c0.789-0.774,1.184-2.029,1.184-3.768v-3.008c-0.428,0.875-1.078,1.595-1.951,2.16c-0.875,0.565-1.91,0.848-3.105,0.848
			c-0.895,0-1.738-0.176-2.527-0.528c-0.789-0.352-1.473-0.831-2.049-1.439c-0.574-0.608-1.029-1.333-1.359-2.176
			s-0.496-1.766-0.496-2.769c0-0.98,0.166-1.893,0.496-2.735s0.785-1.568,1.359-2.177c0.576-0.607,1.254-1.088,2.033-1.439
			c0.777-0.353,1.615-0.528,2.512-0.528c1.279,0,2.342,0.294,3.184,0.88c0.844,0.587,1.498,1.339,1.969,2.256l-0.064-2.848h2.24
			v13.664c0,1.173-0.166,2.181-0.496,3.024c-0.332,0.842-0.789,1.535-1.377,2.079c-0.586,0.545-1.291,0.949-2.111,1.217
			C1155.303,354.488,1154.4,354.621,1153.42,354.621z M1153.26,345.789c0.703,0,1.344-0.123,1.92-0.369
			c0.576-0.245,1.072-0.588,1.488-1.027c0.416-0.438,0.734-0.963,0.959-1.572c0.225-0.61,0.336-1.279,0.336-2.007
			c0-0.706-0.111-1.364-0.336-1.975s-0.543-1.129-0.959-1.557c-0.416-0.429-0.912-0.766-1.488-1.012s-1.217-0.369-1.92-0.369
			c-0.705,0-1.334,0.123-1.889,0.369s-1.035,0.583-1.439,1.012c-0.406,0.428-0.715,0.946-0.928,1.557
			c-0.215,0.61-0.32,1.269-0.32,1.975c0,1.455,0.41,2.648,1.232,3.579C1150.736,345.324,1151.852,345.789,1153.26,345.789z"/>
		<path fill="#FFFFFF" d="M1166.059,330.397c-0.426,0-0.799-0.145-1.119-0.432c-0.32-0.288-0.48-0.667-0.48-1.137
			c0-0.469,0.16-0.853,0.48-1.151s0.693-0.448,1.119-0.448c0.428,0,0.801,0.149,1.121,0.448s0.48,0.683,0.48,1.151
			c0,0.47-0.16,0.849-0.48,1.137C1166.859,330.253,1166.486,330.397,1166.059,330.397z M1164.939,334.237h2.24v13.248h-2.24V334.237
			z"/>
		<path fill="#FFFFFF" d="M1178.027,347.741c-0.982,0-1.889-0.176-2.721-0.528c-0.832-0.352-1.557-0.837-2.176-1.455
			c-0.619-0.619-1.104-1.35-1.455-2.192c-0.354-0.843-0.529-1.744-0.529-2.704s0.176-1.861,0.529-2.704
			c0.352-0.843,0.836-1.578,1.455-2.208c0.619-0.629,1.344-1.12,2.176-1.472c0.832-0.353,1.738-0.528,2.721-0.528
			c1.193,0,2.207,0.205,3.039,0.614s1.557,0.983,2.176,1.722l-1.6,1.312c-0.404-0.533-0.9-0.949-1.488-1.248
			c-0.586-0.299-1.295-0.448-2.127-0.448c-0.705,0-1.34,0.123-1.904,0.369c-0.566,0.246-1.045,0.595-1.439,1.044
			c-0.396,0.449-0.699,0.974-0.912,1.573c-0.215,0.599-0.32,1.252-0.32,1.958s0.105,1.359,0.32,1.958
			c0.213,0.6,0.516,1.124,0.912,1.573c0.395,0.449,0.873,0.798,1.439,1.043c0.564,0.246,1.199,0.369,1.904,0.369
			c0.916,0,1.674-0.165,2.271-0.496c0.598-0.33,1.109-0.74,1.535-1.231l1.537,1.312c-0.619,0.747-1.355,1.328-2.209,1.744
			S1179.264,347.741,1178.027,347.741z"/>
		<path fill="#FFFFFF" d="M1200.555,347.741c-0.982,0-1.889-0.176-2.721-0.528c-0.832-0.352-1.557-0.837-2.176-1.455
			c-0.619-0.619-1.104-1.35-1.455-2.192c-0.354-0.843-0.529-1.744-0.529-2.704s0.176-1.861,0.529-2.704
			c0.352-0.843,0.836-1.578,1.455-2.208c0.619-0.629,1.344-1.12,2.176-1.472c0.832-0.353,1.738-0.528,2.721-0.528
			c1.193,0,2.207,0.205,3.039,0.614s1.557,0.983,2.176,1.722l-1.6,1.312c-0.404-0.533-0.9-0.949-1.488-1.248
			c-0.586-0.299-1.295-0.448-2.127-0.448c-0.705,0-1.34,0.123-1.904,0.369c-0.566,0.246-1.045,0.595-1.439,1.044
			c-0.396,0.449-0.699,0.974-0.912,1.573c-0.215,0.599-0.32,1.252-0.32,1.958s0.105,1.359,0.32,1.958
			c0.213,0.6,0.516,1.124,0.912,1.573c0.395,0.449,0.873,0.798,1.439,1.043c0.564,0.246,1.199,0.369,1.904,0.369
			c0.916,0,1.674-0.165,2.271-0.496c0.598-0.33,1.109-0.74,1.535-1.231l1.537,1.312c-0.619,0.747-1.355,1.328-2.209,1.744
			S1201.791,347.741,1200.555,347.741z"/>
		<path fill="#FFFFFF" d="M1215.5,347.741c-1.004,0-1.932-0.176-2.785-0.528c-0.854-0.352-1.594-0.837-2.223-1.455
			c-0.631-0.619-1.127-1.35-1.488-2.192c-0.363-0.843-0.545-1.744-0.545-2.704s0.182-1.861,0.545-2.704
			c0.361-0.843,0.857-1.578,1.488-2.208c0.629-0.629,1.369-1.12,2.223-1.472c0.854-0.353,1.781-0.528,2.785-0.528
			c0.98,0,1.898,0.176,2.752,0.528c0.852,0.352,1.588,0.843,2.207,1.472c0.619,0.63,1.109,1.365,1.473,2.208
			c0.361,0.843,0.543,1.744,0.543,2.704s-0.182,1.861-0.543,2.704c-0.363,0.843-0.854,1.573-1.473,2.192
			c-0.619,0.618-1.355,1.104-2.207,1.455C1217.398,347.565,1216.48,347.741,1215.5,347.741z M1215.5,345.789
			c0.709,0,1.352-0.122,1.932-0.366s1.08-0.59,1.498-1.037c0.42-0.446,0.742-0.973,0.967-1.579c0.227-0.605,0.338-1.26,0.338-1.961
			c0-0.702-0.111-1.355-0.338-1.962c-0.225-0.605-0.547-1.132-0.967-1.579c-0.418-0.446-0.918-0.792-1.498-1.036
			c-0.58-0.245-1.223-0.367-1.932-0.367s-1.359,0.122-1.949,0.367c-0.592,0.244-1.096,0.59-1.514,1.036
			c-0.42,0.447-0.748,0.974-0.982,1.579c-0.238,0.606-0.355,1.26-0.355,1.962c0,0.701,0.117,1.355,0.355,1.961
			c0.234,0.606,0.562,1.133,0.982,1.579c0.418,0.447,0.922,0.793,1.514,1.037C1214.141,345.667,1214.791,345.789,1215.5,345.789z"/>
		<path fill="#FFFFFF" d="M1231.961,347.741c-0.893,0-1.734-0.176-2.521-0.528c-0.787-0.352-1.467-0.831-2.041-1.439
			c-0.576-0.608-1.027-1.333-1.357-2.176s-0.494-1.766-0.494-2.769c0-0.98,0.164-1.893,0.494-2.735s0.781-1.568,1.357-2.177
			c0.574-0.607,1.25-1.088,2.025-1.439c0.777-0.353,1.611-0.528,2.506-0.528c1.275,0,2.318,0.277,3.127,0.832
			s1.457,1.28,1.947,2.176v-12.575h2.24v23.104h-2.24l0.062-2.848c-0.445,0.917-1.111,1.664-1.994,2.239
			C1234.189,347.453,1233.152,347.741,1231.961,347.741z M1232.412,345.789c0.701,0,1.338-0.123,1.912-0.369
			c0.574-0.245,1.068-0.588,1.484-1.027c0.414-0.438,0.732-0.963,0.955-1.572c0.223-0.61,0.336-1.279,0.336-2.007
			c0-0.706-0.113-1.364-0.336-1.975s-0.541-1.129-0.955-1.557c-0.416-0.429-0.91-0.766-1.484-1.012s-1.211-0.369-1.912-0.369
			c-0.703,0-1.33,0.123-1.883,0.369s-1.031,0.583-1.434,1.012c-0.404,0.428-0.713,0.946-0.926,1.557s-0.318,1.269-0.318,1.975
			c0,1.455,0.408,2.648,1.227,3.579C1229.896,345.324,1231.008,345.789,1232.412,345.789z"/>
		<path fill="#FFFFFF" d="M1245.418,341.598c0.148,1.279,0.641,2.31,1.473,3.088s1.984,1.168,3.455,1.168
			c1.002,0,1.846-0.171,2.529-0.512c0.682-0.342,1.236-0.758,1.664-1.248l1.375,1.344c-0.619,0.683-1.375,1.237-2.271,1.664
			s-1.996,0.64-3.297,0.64c-1.088,0-2.074-0.176-2.959-0.528c-0.887-0.352-1.639-0.837-2.256-1.455
			c-0.619-0.619-1.1-1.35-1.441-2.192s-0.512-1.744-0.512-2.704s0.176-1.861,0.529-2.704c0.352-0.843,0.832-1.578,1.439-2.208
			c0.607-0.629,1.332-1.12,2.176-1.472c0.842-0.353,1.744-0.528,2.703-0.528c1.066,0,2.021,0.192,2.865,0.576
			c0.842,0.384,1.551,0.917,2.127,1.6c0.576,0.684,1.008,1.494,1.297,2.433c0.287,0.938,0.41,1.952,0.367,3.04H1245.418z
			 M1254.441,339.901c-0.043-0.576-0.164-1.109-0.367-1.6c-0.203-0.491-0.49-0.917-0.863-1.28c-0.375-0.362-0.822-0.65-1.346-0.864
			c-0.521-0.213-1.135-0.32-1.84-0.32c-1.279,0-2.318,0.374-3.119,1.12c-0.801,0.747-1.285,1.729-1.457,2.944H1254.441z"/>
		<path fill="#FFFFFF" d="M1082.635,386.142c-0.895,0-1.734-0.176-2.521-0.528c-0.787-0.352-1.469-0.831-2.043-1.439
			s-1.025-1.333-1.355-2.176s-0.494-1.766-0.494-2.769c0-0.98,0.164-1.893,0.494-2.735s0.781-1.568,1.355-2.177
			c0.574-0.607,1.25-1.088,2.027-1.439c0.775-0.353,1.611-0.528,2.504-0.528c1.277,0,2.32,0.277,3.129,0.832
			c0.807,0.555,1.457,1.28,1.945,2.176v-12.575h2.24v23.104h-2.24l0.064-2.848c-0.447,0.917-1.111,1.664-1.996,2.239
			C1084.861,385.854,1083.824,386.142,1082.635,386.142z M1083.084,384.189c0.701,0,1.34-0.123,1.914-0.369
			c0.574-0.245,1.068-0.588,1.482-1.027c0.414-0.438,0.734-0.963,0.957-1.572c0.223-0.61,0.334-1.279,0.334-2.007
			c0-0.706-0.111-1.364-0.334-1.975s-0.543-1.129-0.957-1.557c-0.414-0.429-0.908-0.766-1.482-1.012s-1.213-0.369-1.914-0.369
			s-1.328,0.123-1.881,0.369s-1.031,0.583-1.436,1.012c-0.404,0.428-0.713,0.946-0.924,1.557c-0.213,0.61-0.32,1.269-0.32,1.975
			c0,1.455,0.41,2.648,1.229,3.579C1080.57,383.725,1081.682,384.189,1083.084,384.189z"/>
		<path fill="#FFFFFF" d="M1096.092,379.998c0.148,1.279,0.641,2.31,1.473,3.088s1.984,1.168,3.455,1.168
			c1.002,0,1.846-0.171,2.529-0.512c0.682-0.342,1.236-0.758,1.664-1.248l1.375,1.344c-0.619,0.683-1.375,1.237-2.271,1.664
			s-1.996,0.64-3.297,0.64c-1.088,0-2.074-0.176-2.959-0.528c-0.887-0.352-1.639-0.837-2.256-1.455
			c-0.619-0.619-1.1-1.35-1.441-2.192s-0.512-1.744-0.512-2.704s0.176-1.861,0.529-2.704c0.352-0.843,0.832-1.578,1.439-2.208
			c0.607-0.629,1.332-1.12,2.176-1.472c0.842-0.353,1.744-0.528,2.703-0.528c1.066,0,2.021,0.192,2.865,0.576
			c0.842,0.384,1.551,0.917,2.127,1.6c0.576,0.684,1.008,1.494,1.297,2.433c0.287,0.938,0.41,1.952,0.367,3.04H1096.092z
			 M1105.115,378.302c-0.043-0.576-0.164-1.109-0.367-1.6c-0.203-0.491-0.49-0.917-0.863-1.28c-0.375-0.362-0.822-0.65-1.346-0.864
			c-0.521-0.213-1.135-0.32-1.84-0.32c-1.279,0-2.318,0.374-3.119,1.12c-0.801,0.747-1.285,1.729-1.457,2.944H1105.115z"/>
		<path fill="#FFFFFF" d="M1109.146,372.638h2.465l3.52,7.648c0.107,0.234,0.203,0.479,0.289,0.735
			c0.084,0.256,0.16,0.502,0.223,0.736c0.086,0.256,0.16,0.522,0.225,0.8c0.043-0.277,0.107-0.544,0.191-0.8
			c0.064-0.234,0.139-0.48,0.225-0.736s0.182-0.501,0.287-0.735l3.457-7.648h2.305l-6.336,13.504h-0.416L1109.146,372.638z"/>
		<path fill="#FFFFFF" d="M1126.428,379.998c0.148,1.279,0.641,2.31,1.473,3.088s1.984,1.168,3.455,1.168
			c1.002,0,1.846-0.171,2.529-0.512c0.682-0.342,1.236-0.758,1.664-1.248l1.375,1.344c-0.619,0.683-1.375,1.237-2.271,1.664
			s-1.996,0.64-3.297,0.64c-1.088,0-2.074-0.176-2.959-0.528c-0.887-0.352-1.639-0.837-2.256-1.455
			c-0.619-0.619-1.1-1.35-1.441-2.192s-0.512-1.744-0.512-2.704s0.176-1.861,0.529-2.704c0.352-0.843,0.832-1.578,1.439-2.208
			c0.607-0.629,1.332-1.12,2.176-1.472c0.842-0.353,1.744-0.528,2.703-0.528c1.066,0,2.021,0.192,2.865,0.576
			c0.842,0.384,1.551,0.917,2.127,1.6c0.576,0.684,1.008,1.494,1.297,2.433c0.287,0.938,0.41,1.952,0.367,3.04H1126.428z
			 M1135.451,378.302c-0.043-0.576-0.164-1.109-0.367-1.6c-0.203-0.491-0.49-0.917-0.863-1.28c-0.375-0.362-0.822-0.65-1.346-0.864
			c-0.521-0.213-1.135-0.32-1.84-0.32c-1.279,0-2.318,0.374-3.119,1.12c-0.801,0.747-1.285,1.729-1.457,2.944H1135.451z"/>
		<path fill="#FFFFFF" d="M1141.691,362.782h2.24v23.104h-2.24V362.782z"/>
		<path fill="#FFFFFF" d="M1155.035,386.142c-1.004,0-1.932-0.176-2.785-0.528c-0.854-0.352-1.594-0.837-2.223-1.455
			c-0.631-0.619-1.127-1.35-1.488-2.192c-0.363-0.843-0.545-1.744-0.545-2.704s0.182-1.861,0.545-2.704
			c0.361-0.843,0.857-1.578,1.488-2.208c0.629-0.629,1.369-1.12,2.223-1.472c0.854-0.353,1.781-0.528,2.785-0.528
			c0.98,0,1.898,0.176,2.752,0.528c0.852,0.352,1.588,0.843,2.207,1.472c0.619,0.63,1.109,1.365,1.473,2.208
			c0.361,0.843,0.543,1.744,0.543,2.704s-0.182,1.861-0.543,2.704c-0.363,0.843-0.854,1.573-1.473,2.192
			c-0.619,0.618-1.355,1.104-2.207,1.455C1156.934,385.966,1156.016,386.142,1155.035,386.142z M1155.035,384.189
			c0.709,0,1.352-0.122,1.932-0.366s1.08-0.59,1.498-1.037c0.42-0.446,0.742-0.973,0.967-1.579c0.227-0.605,0.338-1.26,0.338-1.961
			c0-0.702-0.111-1.355-0.338-1.962c-0.225-0.605-0.547-1.132-0.967-1.579c-0.418-0.446-0.918-0.792-1.498-1.036
			c-0.58-0.245-1.223-0.367-1.932-0.367s-1.359,0.122-1.949,0.367c-0.592,0.244-1.096,0.59-1.514,1.036
			c-0.42,0.447-0.748,0.974-0.982,1.579c-0.238,0.606-0.355,1.26-0.355,1.962c0,0.701,0.117,1.355,0.355,1.961
			c0.234,0.606,0.562,1.133,0.982,1.579c0.418,0.447,0.922,0.793,1.514,1.037C1153.676,384.067,1154.326,384.189,1155.035,384.189z"
			/>
		<path fill="#FFFFFF" d="M1165.947,372.638h2.238l-0.062,2.848c0.467-0.917,1.127-1.669,1.979-2.256
			c0.85-0.586,1.904-0.88,3.158-0.88c0.895,0,1.729,0.176,2.506,0.528c0.775,0.352,1.451,0.832,2.025,1.439
			c0.574,0.608,1.027,1.334,1.357,2.177c0.328,0.843,0.494,1.755,0.494,2.735c0,1.003-0.166,1.926-0.494,2.769
			c-0.33,0.843-0.783,1.567-1.357,2.176s-1.256,1.088-2.043,1.439c-0.787,0.353-1.627,0.528-2.52,0.528
			c-1.191,0-2.223-0.282-3.096-0.848s-1.521-1.285-1.947-2.16v9.536h-2.238V372.638z M1172.779,384.189
			c1.402,0,2.512-0.465,3.332-1.396c0.818-0.931,1.227-2.124,1.227-3.579c0-0.706-0.105-1.364-0.318-1.975s-0.521-1.129-0.926-1.557
			c-0.404-0.429-0.881-0.766-1.434-1.012c-0.555-0.246-1.182-0.369-1.881-0.369c-0.703,0-1.34,0.123-1.914,0.369
			s-1.068,0.583-1.482,1.012c-0.416,0.428-0.734,0.946-0.957,1.557c-0.225,0.61-0.336,1.269-0.336,1.975
			c0,0.728,0.111,1.396,0.336,2.007c0.223,0.609,0.541,1.134,0.957,1.572c0.414,0.439,0.908,0.782,1.482,1.027
			C1171.439,384.066,1172.076,384.189,1172.779,384.189z"/>
		<path fill="#FFFFFF" d="M1183.547,372.638h2.24l-0.064,2.496c0.428-0.896,0.992-1.584,1.697-2.064
			c0.703-0.479,1.523-0.72,2.463-0.72c1.045,0,1.898,0.256,2.561,0.769c0.66,0.512,1.141,1.184,1.439,2.016
			c0.492-0.896,1.141-1.584,1.943-2.064c0.803-0.479,1.686-0.72,2.648-0.72c1.479,0,2.633,0.448,3.469,1.344
			c0.834,0.896,1.252,2.134,1.252,3.712v8.48h-2.24v-8.192c0-1.066-0.225-1.882-0.672-2.447s-1.195-0.849-2.24-0.849
			c-1.066,0-1.926,0.348-2.576,1.04c-0.65,0.693-0.977,1.702-0.977,3.024v7.424h-2.238v-8.192c0-1.066-0.225-1.882-0.672-2.447
			c-0.449-0.565-1.186-0.849-2.209-0.849c-1.066,0-1.932,0.348-2.592,1.04c-0.662,0.693-0.992,1.702-0.992,3.024v7.424h-2.24
			V372.638z"/>
		<path fill="#FFFFFF" d="M1209.178,379.998c0.148,1.279,0.641,2.31,1.473,3.088s1.984,1.168,3.455,1.168
			c1.002,0,1.846-0.171,2.529-0.512c0.682-0.342,1.236-0.758,1.664-1.248l1.375,1.344c-0.619,0.683-1.375,1.237-2.271,1.664
			s-1.996,0.64-3.297,0.64c-1.088,0-2.074-0.176-2.959-0.528c-0.887-0.352-1.639-0.837-2.256-1.455
			c-0.619-0.619-1.1-1.35-1.441-2.192s-0.512-1.744-0.512-2.704s0.176-1.861,0.529-2.704c0.352-0.843,0.832-1.578,1.439-2.208
			c0.607-0.629,1.332-1.12,2.176-1.472c0.842-0.353,1.744-0.528,2.703-0.528c1.066,0,2.021,0.192,2.865,0.576
			c0.842,0.384,1.551,0.917,2.127,1.6c0.576,0.684,1.008,1.494,1.297,2.433c0.287,0.938,0.41,1.952,0.367,3.04H1209.178z
			 M1218.201,378.302c-0.043-0.576-0.164-1.109-0.367-1.6c-0.203-0.491-0.49-0.917-0.863-1.28c-0.375-0.362-0.822-0.65-1.346-0.864
			c-0.521-0.213-1.135-0.32-1.84-0.32c-1.279,0-2.318,0.374-3.119,1.12c-0.801,0.747-1.285,1.729-1.457,2.944H1218.201z"/>
		<path fill="#FFFFFF" d="M1224.281,372.638h2.24l-0.064,2.72c0.428-0.96,1.057-1.7,1.889-2.224
			c0.832-0.522,1.791-0.784,2.879-0.784c1.473,0,2.668,0.48,3.586,1.44c0.916,0.96,1.375,2.304,1.375,4.031v8.064h-2.24v-7.808
			c0-1.174-0.271-2.08-0.816-2.721c-0.543-0.64-1.371-0.96-2.479-0.96c-1.238,0-2.236,0.368-2.992,1.104
			c-0.758,0.735-1.137,1.766-1.137,3.088v7.296h-2.24V372.638z"/>
		<path fill="#FFFFFF" d="M1244.986,386.174c-0.512,0-0.982-0.075-1.414-0.224c-0.43-0.149-0.807-0.395-1.131-0.736
			c-0.326-0.341-0.58-0.784-0.764-1.328s-0.275-1.211-0.275-2v-7.36h-2.049v-1.888h2.049v-6.912h2.24v6.912h3.711v1.888h-3.711
			v7.393c0,0.896,0.139,1.504,0.416,1.824c0.277,0.319,0.66,0.479,1.152,0.479c0.447,0,0.805-0.08,1.07-0.24
			c0.268-0.16,0.508-0.336,0.721-0.527l1.217,1.407c-0.299,0.3-0.711,0.593-1.232,0.881
			C1246.463,386.029,1245.797,386.174,1244.986,386.174z"/>
	</g>
	<g>
		<path fill="#FFFFFF" d="M1446.674,339.382c0,7.392-2.053,12.988-6.16,16.795c-4.105,3.805-9.963,5.707-17.572,5.707
			c-3.068,0-5.982-0.328-8.748-0.985s-5.188-1.795-7.266-3.411c-2.084-1.612-3.738-3.803-4.969-6.568
			c-1.232-2.766-1.85-6.284-1.85-10.554c0-15.548,7.885-23.323,23.652-23.323c3.119,0,6.078,0.344,8.867,1.026
			c2.793,0.688,5.23,1.876,7.311,3.572c2.08,1.7,3.725,3.985,4.928,6.858C1446.072,331.372,1446.674,335.001,1446.674,339.382z
			 M1423.598,324.354c-2.957,0-5.131,1.051-6.529,3.16c-1.395,2.106-2.094,5.625-2.094,10.553c0,3.396,0.166,6.172,0.492,8.337
			c0.33,2.159,0.822,3.856,1.48,5.091c0.656,1.23,1.488,2.065,2.502,2.504c1.014,0.439,2.23,0.657,3.654,0.657
			c3.178,0,5.393-1.149,6.654-3.448c1.258-2.301,1.889-6.105,1.889-11.416c0-3.123-0.18-5.682-0.533-7.679
			c-0.357-1.997-0.877-3.573-1.562-4.724c-0.684-1.148-1.516-1.943-2.506-2.381C1426.062,324.57,1424.912,324.354,1423.598,324.354z
			"/>
		<path fill="#FFFFFF" d="M1484.369,333.059l-6.652,0.573c-0.715-3.285-2.289-5.626-4.725-7.02
			c-2.436-1.399-5.324-2.096-8.662-2.096c-2.027,0-3.6,0.344-4.723,1.025c-1.119,0.688-1.682,1.601-1.682,2.752
			c0,1.422,0.711,2.491,2.133,3.205c1.426,0.711,3.203,1.313,5.34,1.804c2.137,0.495,4.461,0.986,6.979,1.478
			c2.518,0.494,4.846,1.235,6.982,2.221c2.137,0.983,3.912,2.326,5.336,4.021c1.422,1.696,2.137,3.971,2.137,6.817
			c0,2.245-0.438,4.187-1.312,5.83c-0.877,1.643-2.043,3.014-3.492,4.106c-1.449,1.096-3.135,1.906-5.051,2.424
			c-1.916,0.521-3.889,0.781-5.914,0.781c-3.832,0-6.789-0.261-8.867-0.781c-2.08-0.518-3.777-1.139-5.092-1.85
			c-0.383-0.165-0.77-0.326-1.148-0.491c-0.387-0.166-0.771-0.249-1.15-0.249c-1.043,0-1.699,0.96-1.973,2.873h-6.65v-14.862
			c1.094-0.109,2.189-0.188,3.285-0.246c1.094-0.054,2.188-0.109,3.283-0.165c0.33,1.48,1,2.795,2.014,3.944
			c1.012,1.149,2.258,2.125,3.736,2.913c1.479,0.797,3.107,1.398,4.885,1.807c1.779,0.409,3.572,0.616,5.379,0.616
			c1.973,0,3.504-0.411,4.602-1.231c1.092-0.822,1.641-1.867,1.641-3.129c0-1.318-0.492-2.308-1.479-2.964
			c-0.984-0.656-2.299-1.179-3.939-1.563s-3.52-0.742-5.627-1.066c-2.107-0.333-4.258-0.802-6.445-1.4
			c-4.109-1.102-7.023-2.676-8.746-4.736c-1.727-2.057-2.588-4.73-2.588-8.025c0-3.787,1.312-6.832,3.943-9.135
			c2.625-2.303,6.35-3.459,11.166-3.459c1.971,0,3.748,0.185,5.34,0.548c1.586,0.367,2.969,0.783,4.146,1.261
			c1.176,0.478,2.188,0.897,3.039,1.261c0.846,0.366,1.518,0.545,2.014,0.545c0.654,0,1.16-0.207,1.516-0.616
			c0.357-0.411,0.645-1.107,0.863-2.095h6.16V333.059z"/>
		<path fill="#FFFFFF" d="M1525.281,333.059l-6.652,0.573c-0.715-3.285-2.289-5.626-4.723-7.02
			c-2.436-1.399-5.324-2.096-8.666-2.096c-2.025,0-3.6,0.344-4.719,1.025c-1.125,0.688-1.684,1.601-1.684,2.752
			c0,1.422,0.711,2.491,2.133,3.205c1.424,0.711,3.203,1.313,5.34,1.804c2.135,0.495,4.461,0.986,6.979,1.478
			c2.518,0.494,4.844,1.235,6.982,2.221c2.133,0.983,3.912,2.326,5.336,4.021c1.424,1.696,2.139,3.971,2.139,6.817
			c0,2.245-0.441,4.187-1.314,5.83c-0.877,1.643-2.043,3.014-3.492,4.106c-1.451,1.096-3.135,1.906-5.049,2.424
			c-1.918,0.521-3.891,0.781-5.916,0.781c-3.832,0-6.787-0.261-8.867-0.781c-2.082-0.518-3.777-1.139-5.092-1.85
			c-0.385-0.165-0.77-0.326-1.15-0.491c-0.385-0.166-0.768-0.249-1.148-0.249c-1.043,0-1.699,0.96-1.973,2.873h-6.65v-14.862
			c1.096-0.109,2.186-0.188,3.281-0.246c1.096-0.054,2.191-0.109,3.287-0.165c0.33,1.48,1,2.795,2.014,3.944
			c1.012,1.149,2.256,2.125,3.736,2.913c1.477,0.797,3.107,1.398,4.887,1.807c1.777,0.409,3.572,0.616,5.377,0.616
			c1.973,0,3.502-0.411,4.602-1.231c1.092-0.822,1.641-1.867,1.641-3.129c0-1.318-0.492-2.308-1.479-2.964
			c-0.984-0.656-2.299-1.179-3.939-1.563c-1.645-0.385-3.52-0.742-5.627-1.066c-2.109-0.333-4.258-0.802-6.449-1.4
			c-4.105-1.102-7.02-2.676-8.746-4.736c-1.725-2.057-2.584-4.73-2.584-8.025c0-3.787,1.311-6.832,3.939-9.135
			s6.354-3.459,11.168-3.459c1.973,0,3.75,0.185,5.34,0.548c1.588,0.367,2.971,0.783,4.148,1.261
			c1.174,0.478,2.189,0.897,3.039,1.261c0.848,0.366,1.518,0.545,2.01,0.545c0.658,0,1.164-0.207,1.52-0.616
			c0.355-0.411,0.643-1.107,0.861-2.095h6.162V333.059z"/>
		<path fill="#FFFFFF" d="M1548.982,350.581c-0.109,2.457,2.219,3.684,6.984,3.684v6.736h-28.99v-6.736
			c4.65,0,6.979-1.227,6.979-3.684v-21.043c0-2.511-2.328-3.77-6.979-3.77V319.2h22.006V350.581z M1549.723,305.894
			c0,1.153-0.217,2.232-0.656,3.244c-0.438,1.014-1.029,1.906-1.766,2.673c-0.74,0.767-1.615,1.368-2.627,1.806
			c-1.014,0.437-2.096,0.656-3.246,0.656c-1.148,0-2.217-0.22-3.203-0.656c-0.984-0.438-1.861-1.039-2.625-1.806
			c-0.77-0.767-1.369-1.659-1.807-2.673c-0.439-1.012-0.658-2.091-0.658-3.244c0-1.148,0.219-2.216,0.658-3.199
			c0.438-0.986,1.037-1.848,1.807-2.589c0.764-0.74,1.641-1.327,2.625-1.765c0.986-0.438,2.055-0.656,3.203-0.656
			c1.15,0,2.232,0.219,3.246,0.656c1.012,0.438,1.887,1.024,2.627,1.765c0.736,0.741,1.328,1.603,1.766,2.589
			C1549.506,303.678,1549.723,304.745,1549.723,305.894z"/>
		<path fill="#FFFFFF" d="M1602.596,350.222c0,2.462,2.221,3.694,6.652,3.694v6.567h-21.434v-8.371
			c-1.641,2.791-3.807,5.023-6.486,6.69c-2.684,1.672-6.076,2.505-10.184,2.505c-4.438,0-7.678-0.973-9.734-2.915
			c-2.049-1.943-3.078-5.052-3.078-9.321v-20.119c0-2.466-2.352-3.696-7.061-3.696v-6.572h21.598v23.57
			c0,3.45,0.422,5.972,1.27,7.557c0.85,1.588,2.205,2.382,4.068,2.382c2.299,0,4.242-0.901,5.828-2.712
			c1.588-1.803,2.848-4.271,3.779-7.392v-13.057c0-1.259-0.492-2.203-1.479-2.833c-0.986-0.627-2.545-0.943-4.682-0.943v-6.572
			h20.941V350.222z"/>
		<path fill="#FFFFFF" d="M1690.418,350.065c0,2.459,2.217,3.688,6.65,3.688v6.73h-26.115v-6.73c2.955,0,4.436-1.229,4.436-3.686
			v-12.935c0-3.439-0.369-5.946-1.104-7.53c-0.734-1.585-1.863-2.375-3.387-2.375c-2.016,0-3.852,0.858-5.514,2.575
			c-1.66,1.724-3.006,4.216-4.039,7.496v12.769c0,1.255,0.395,2.185,1.189,2.786c0.793,0.597,1.85,0.899,3.162,0.899v6.73h-23.816
			v-6.73c2.957,0,4.436-1.229,4.436-3.686v-12.935c0-3.439-0.369-5.946-1.104-7.53c-0.734-1.585-1.891-2.375-3.471-2.375
			c-2.064,0-3.93,0.858-5.592,2.575c-1.662,1.724-2.98,4.216-3.961,7.496v12.769c0,2.457,1.479,3.686,4.438,3.686v6.73h-26.035
			v-6.73c4.381,0,6.568-1.229,6.568-3.688v-21.138c0-2.459-2.162-3.688-6.486-3.688v-6.556h21.516l-0.066,8.459
			c1.701-2.788,3.91-5.032,6.627-6.732c2.717-1.697,5.994-2.544,9.836-2.544c3.293,0,6.092,0.775,8.398,2.338
			c2.303,1.561,3.699,3.928,4.197,7.106c3.721-6.298,9.225-9.444,16.504-9.444c3.834,0,6.914,0.97,9.24,2.904
			c2.328,1.94,3.492,5.041,3.492,9.304V350.065z"/>
	</g>
	<g>
		<g>
			<path fill="#FFFFFF" d="M1546.99,282.996c-77.592,0-140.721-63.122-140.721-140.72c0-77.592,63.129-140.72,140.721-140.72
				s140.719,63.128,140.719,140.72C1687.709,219.874,1624.582,282.996,1546.99,282.996z M1546.99,10.645
				c-72.578,0-131.631,59.052-131.631,131.632c0,72.579,59.053,131.631,131.631,131.631c72.58,0,131.631-59.052,131.631-131.631
				C1678.621,69.696,1619.57,10.645,1546.99,10.645z"/>
		</g>
		<g>
			<path fill="#FFFFFF" d="M1546.99,202.495c-33.207,0-60.219-27.018-60.219-60.219c0-33.209,27.012-60.22,60.219-60.22
				c33.203,0,60.219,27.011,60.219,60.22C1607.209,175.478,1580.193,202.495,1546.99,202.495z M1546.99,89.75
				c-28.963,0-52.525,23.564-52.525,52.526s23.562,52.525,52.525,52.525c28.967,0,52.527-23.563,52.527-52.525
				S1575.957,89.75,1546.99,89.75z"/>
		</g>
		<g>
			<path fill="#FFFFFF" d="M1471.127,162.71c-1.576-6.304-2.377-12.828-2.377-19.383c0-18.05,6.203-35.725,17.467-49.781
				c11.092-13.838,26.654-23.686,43.822-27.734l0.939,8.85c-14.971,3.533-28.541,12.127-38.221,24.201
				c-9.969,12.431-15.232,27.443-15.232,43.414c0,5.725,0.693,11.414,2.072,16.916L1471.127,162.71z"/>
		</g>
		<g>
			<path fill="#FFFFFF" d="M1623.232,162.71c1.584-6.304,2.379-12.828,2.379-19.383c0-18.05-6.203-35.725-17.467-49.781
				c-11.1-13.838-26.66-23.686-43.822-27.734l-0.934,8.85c14.965,3.533,28.533,12.127,38.213,24.201
				c9.967,12.431,15.234,27.443,15.234,43.414c0,5.725-0.699,11.414-2.072,16.916L1623.232,162.71z"/>
		</g>
		<g>
			<path fill="#FFFFFF" d="M1491.906,198.448c4.689,4.503,9.953,8.439,15.637,11.693c15.666,8.972,34.086,12.372,51.879,9.58
				c17.518-2.745,33.803-11.355,45.85-24.236l-7.221-5.216c-10.498,11.233-24.703,18.739-39.992,21.14
				c-15.734,2.471-31.385-0.421-45.24-8.359c-4.971-2.845-9.562-6.28-13.65-10.205L1491.906,198.448z"/>
		</g>
		<g opacity="0.5">
			<path fill-rule="evenodd" clip-rule="evenodd" fill="#FFFFFF" d="M1594.738,199.534"/>
		</g>
		<g opacity="0.5">
			<path fill-rule="evenodd" clip-rule="evenodd" fill="#FFFFFF" d="M1620.195,156.471"/>
		</g>
		<g>
			<path fill-rule="evenodd" clip-rule="evenodd" fill="#FFFFFF" d="M1559.83,142.276c0,7.092-5.756,12.839-12.84,12.839
				c-7.086,0-12.832-5.747-12.832-12.839s5.746-12.835,12.832-12.835C1554.074,129.441,1559.83,135.185,1559.83,142.276z"/>
		</g>
		<path fill="#FFFFFF" d="M1546.955,23.91c-65.588,0-118.949,53.362-118.949,118.95c0,65.582,53.361,118.942,118.949,118.942
			c65.582,0,118.943-53.36,118.943-118.942C1665.898,77.272,1612.537,23.91,1546.955,23.91z M1565.176,230.913l0.092,16.735
			l-35.117,0.204l-0.094-16.682c-41.527-7.933-73.012-44.511-73.012-88.311c0-12.642,2.623-24.674,7.348-35.592l-12.559-8.54
			l19.744-29.044l12.787,8.691c16.197-15.73,38.283-25.426,62.59-25.426c25.674,0,48.869,10.817,65.268,28.136l13.398-8.64
			l19.033,29.524l-13.705,8.826c3.82,9.964,5.918,20.771,5.918,32.063C1636.867,186.19,1606.047,222.467,1565.176,230.913z"/>
	</g>
</g>
</svg>
